<?xml version="1.0" encoding="UTF-8" standalone="no"?>
<svg
   viewBox="0 0 24 24"
   version="1.1"
   id="svg1"
   sodipodi:docname="folder-projects.svg"
   inkscape:version="1.4.4 (dcaf3e7d9e, 2026-05-05)"
   width="24"
   height="24"
   xmlns:inkscape="http://www.inkscape.org/namespaces/inkscape"
   xmlns:sodipodi="http://sodipodi.sourceforge.net/DTD/sodipodi-0.dtd"
   xmlns="http://www.w3.org/2000/svg"
   xmlns:svg="http://www.w3.org/2000/svg">
  <sodipodi:namedview
     id="namedview1"
     pagecolor="#ffffff"
     bordercolor="#000000"
     borderopacity="0.25"
     inkscape:showpageshadow="2"
     inkscape:pageopacity="0.0"
     inkscape:pagecheckerboard="0"
     inkscape:deskcolor="#d1d1d1"
     inkscape:zoom="33.333333"
     inkscape:cx="11.985"
     inkscape:cy="12"
     inkscape:window-width="1920"
     inkscape:window-height="1008"
     inkscape:window-x="0"
     inkscape:window-y="0"
     inkscape:window-maximized="1"
     inkscape:current-layer="svg1" />
  <defs
     id="defs3051">
    <style
       type="text/css"
       id="current-color-scheme">
      .ColorScheme-Text {
        color:#232629;
      }
      </style>
  </defs>
  <path
     id="path1"
     style="fill:currentColor;fill-opacity:1;stroke:none"
     class="ColorScheme-Text"
     d="m 12,4 c -0.67521,0.004 -1.34721,0.092995 -2,0.265625 v 1.0332031 0.011719 C 9.5438069,5.4469429 9.1027207,5.6295291 8.6835938,5.8554688 L 8.6757838,5.8476588 7.943362,5.115237 C 6.776412,5.803287 5.803287,6.776412 5.115237,7.943362 l 0.5214844,0.5214844 0.21875,0.21875 C 5.6288541,9.1026407 5.4456151,9.5437319 5.3085938,10 H 5.2949219 4.2597656 C 4.0891456,10.65304 4.00187,11.32505 4,12 c 0.004,0.67521 0.093005,1.34721 0.265625,2 h 1.0332031 0.011719 c 0.1363962,0.456193 0.3189822,0.897279 0.5449219,1.316406 l -0.21875,0.21875 -0.5214844,0.521485 c 0.68805,1.16696 1.661165,2.140075 2.828125,2.828125 l 0.5214844,-0.521485 0.21875,-0.21875 C 9.1026431,18.371143 9.5437319,18.554385 10,18.691406 V 19 19.740234 c 0.65304,0.17062 1.32504,0.257896 2,0.259766 0.67496,-0.0019 1.34696,-0.08915 2,-0.259766 V 19 18.691406 c 0.456268,-0.137021 0.897357,-0.320263 1.316406,-0.546875 l 0.21875,0.21875 0.521485,0.521485 c 1.16696,-0.68805 2.140075,-1.661165 2.828125,-2.828125 l -0.521485,-0.521485 -0.21875,-0.21875 C 18.370471,14.897279 18.553057,14.456193 18.689453,14 h 0.01172 1.033203 C 19.907004,13.34721 19.996,12.67521 20,12 19.9981,11.32505 19.91085,10.65304 19.740234,10 h -1.035156 -0.01367 C 18.554383,9.5437319 18.371143,9.1026432 18.144531,8.6835938 l 0.21875,-0.21875 0.521485,-0.5214844 c -0.68805,-1.16695 -1.661175,-2.140075 -2.828125,-2.828125 l -0.732422,0.7324218 -0.0078,0.00781 C 14.897266,5.6295318 14.456193,5.4469431 14,5.3105469 V 5.2988281 4.265625 C 13.34721,4.092995 12.67521,4.004 12,4 Z m 0,3 a 5,5 0 0 1 5,5 5,5 0 0 1 -5,5 5,5 0 0 1 -5,-5 5,5 0 0 1 5,-5 z" />
</svg>
