<?xml version="1.0" encoding="UTF-8" standalone="no"?>
<svg
   width="48"
   height="48"
   version="1.1"
   id="svg3"
   sodipodi:docname="cities-skylines.svg"
   inkscape:version="1.4.4 (dcaf3e7d9e, 2026-05-05)"
   xmlns:inkscape="http://www.inkscape.org/namespaces/inkscape"
   xmlns:sodipodi="http://sodipodi.sourceforge.net/DTD/sodipodi-0.dtd"
   xmlns:xlink="http://www.w3.org/1999/xlink"
   xmlns="http://www.w3.org/2000/svg"
   xmlns:svg="http://www.w3.org/2000/svg">
  <sodipodi:namedview
     id="namedview3"
     pagecolor="#ffffff"
     bordercolor="#000000"
     borderopacity="0.25"
     inkscape:showpageshadow="2"
     inkscape:pageopacity="0.0"
     inkscape:pagecheckerboard="0"
     inkscape:deskcolor="#d1d1d1"
     inkscape:zoom="11.979167"
     inkscape:cx="24"
     inkscape:cy="24"
     inkscape:window-width="1440"
     inkscape:window-height="826"
     inkscape:window-x="0"
     inkscape:window-y="0"
     inkscape:window-maximized="1"
     inkscape:current-layer="svg3"
     showguides="false" />
  <defs
     id="defs2">
    <linearGradient
       id="linearGradient2"
       inkscape:collect="always">
      <stop
         style="stop-color:#c8caca;stop-opacity:1;"
         offset="0"
         id="stop1" />
      <stop
         style="stop-color:#8f8f8f;stop-opacity:1;"
         offset="1"
         id="stop2" />
    </linearGradient>
    <linearGradient
       id="linearGradient23"
       inkscape:collect="always">
      <stop
         style="stop-color:#7f9bad;stop-opacity:1;"
         offset="0"
         id="stop22" />
      <stop
         style="stop-color:#9ab1be;stop-opacity:1;"
         offset="1"
         id="stop23" />
    </linearGradient>
    <linearGradient
       id="linearGradient20"
       inkscape:collect="always">
      <stop
         style="stop-color:#79d3ff;stop-opacity:1;"
         offset="0"
         id="stop20" />
      <stop
         style="stop-color:#b2e5ff;stop-opacity:1;"
         offset="1"
         id="stop21" />
    </linearGradient>
    <linearGradient
       id="linearGradient11"
       inkscape:collect="always">
      <stop
         style="stop-color:#000000;stop-opacity:1;"
         offset="0"
         id="stop11" />
      <stop
         style="stop-color:#000000;stop-opacity:0;"
         offset="1"
         id="stop12" />
    </linearGradient>
    <linearGradient
       id="linearGradient6"
       inkscape:collect="always">
      <stop
         style="stop-color:#2e9cf1;stop-opacity:1;"
         offset="0"
         id="stop6" />
      <stop
         style="stop-color:#4fd2ff;stop-opacity:1;"
         offset="1"
         id="stop7" />
    </linearGradient>
    <linearGradient
       id="linearGradient4"
       inkscape:collect="always">
      <stop
         style="stop-color:#99b2bd;stop-opacity:1;"
         offset="0"
         id="stop4" />
      <stop
         style="stop-color:#c6d3da;stop-opacity:1;"
         offset="1"
         id="stop5" />
    </linearGradient>
    <linearGradient
       gradientTransform="translate(-384.57143,-499.798)"
       xlink:href="#linearGradient3"
       id="linearGradient4236"
       x1="428.57001"
       y1="543.79999"
       x2="408.57001"
       y2="503.79999"
       gradientUnits="userSpaceOnUse" />
    <linearGradient
       inkscape:collect="always"
       id="linearGradient3">
      <stop
         style="stop-color:#09c3ff;stop-opacity:1;"
         offset="0"
         id="stop1-6" />
      <stop
         style="stop-color:#007fed;stop-opacity:1;"
         offset="1"
         id="stop2-7" />
    </linearGradient>
    <linearGradient
       inkscape:collect="always"
       xlink:href="#linearGradient4"
       id="linearGradient5"
       x1="26"
       y1="12"
       x2="34"
       y2="44"
       gradientUnits="userSpaceOnUse" />
    <linearGradient
       inkscape:collect="always"
       xlink:href="#linearGradient6"
       id="linearGradient7"
       x1="23.115099"
       y1="4.0019879"
       x2="43.998577"
       y2="44.001987"
       gradientUnits="userSpaceOnUse" />
    <linearGradient
       inkscape:collect="always"
       xlink:href="#linearGradient23"
       id="linearGradient8"
       gradientUnits="userSpaceOnUse"
       x1="34"
       y1="44"
       x2="26"
       y2="12"
       gradientTransform="translate(-8,9)" />
    <linearGradient
       inkscape:collect="always"
       xlink:href="#linearGradient2"
       id="linearGradient9"
       gradientUnits="userSpaceOnUse"
       gradientTransform="matrix(-1,0,0,1,56,13)"
       x1="34"
       y1="44"
       x2="26"
       y2="12" />
    <linearGradient
       inkscape:collect="always"
       xlink:href="#linearGradient11"
       id="linearGradient19"
       x1="25.813251"
       y1="16.609943"
       x2="44"
       y2="37.099609"
       gradientUnits="userSpaceOnUse" />
    <linearGradient
       inkscape:collect="always"
       xlink:href="#linearGradient20"
       id="linearGradient21"
       x1="39"
       y1="35"
       x2="39"
       y2="12"
       gradientUnits="userSpaceOnUse" />
  </defs>
  <rect
     style="fill:url(#linearGradient7);fill-opacity:1"
     width="40"
     height="40"
     x="3.9985774"
     y="4.0019879"
     ry="3"
     id="rect2" />
  <path
     id="rect1-2"
     style="fill:url(#linearGradient8);fill-opacity:1"
     d="M 18 21 L 6 27 L 6 43.833984 C 6.3121181 43.943447 6.6476153 44.001953 6.9980469 44.001953 L 26 44.001953 L 26 27 L 18 21 z " />
  <path
     id="rect1-2-7"
     style="fill:url(#linearGradient9);fill-opacity:1"
     d="M 30 25 L 22 31 L 22 44.001953 L 40.998047 44.001953 C 41.349544 44.001953 41.687079 43.942132 42 43.832031 L 42 31 L 30 25 z " />
  <path
     id="rect1"
     style="fill:url(#linearGradient5);fill-opacity:1"
     d="m 14,18 12,-6 8,6 V 44 H 14 Z"
     sodipodi:nodetypes="cccccc" />
  <path
     style="opacity:0.15;fill:#000000;fill-opacity:1"
     d="m 4,40 v 1 c 0,1.662 1.338,3 3,3 h 34 c 1.662,0 3,-1.338 3,-3 v -1 c 0,1.662 -1.338,3 -3,3 H 7 C 5.338,43 4,41.662 4,40 Z"
     id="path2" />
  <path
     id="rect18"
     style="opacity:0.3;fill:url(#linearGradient19)"
     d="M 16 12 L 9.7421875 33.976562 L 18.335938 44.001953 L 40.998047 44.001953 C 42.660047 44.001953 43.998047 42.663953 43.998047 41.001953 L 43.998047 19.115234 L 38.167969 12.925781 L 25.8125 16.609375 L 21.8125 12.609375 L 16 12 z " />
  <path
     id="path2-3"
     style="color:#000000;fill:url(#linearGradient21);fill-opacity:1;stroke-linejoin:round;-inkscape-stroke:none"
     d="m 12,12 c -1.656784,1.66e-4 -2.999834,1.343216 -3,3 v 17 c 1.66e-4,1.656784 1.343216,2.999834 3,3 h 8 c 1.656784,-1.66e-4 2.999834,-1.343216 3,-3 v -8 h -6 v 5 H 15 V 18 h 2 v 4 h 6 v -7 c -1.66e-4,-1.656784 -1.343216,-2.999834 -3,-3 z m 16,0 c -1.656784,1.66e-4 -2.999834,1.343216 -3,3 v 9 c 1.66e-4,1.656784 1.343216,2.999834 3,3 h 5 v 2 h -2 v -1 h -6 v 4 c 1.66e-4,1.656784 1.343216,2.999834 3,3 h 8 c 1.656784,-1.66e-4 2.999834,-1.343216 3,-3 v -8 c -1.66e-4,-1.656784 -1.343216,-2.999834 -3,-3 h -5 v -3 h 2 v 2 h 6 v -5 c -1.66e-4,-1.656784 -1.343216,-2.999834 -3,-3 z" />
</svg>
