<?xml version="1.0" encoding="UTF-8" standalone="no"?>
<!-- Created with Inkscape (http://www.inkscape.org/) -->

<svg
   width="48"
   height="48"
   viewBox="0 0 48 48"
   version="1.1"
   id="svg5"
   inkscape:version="1.4.4 (dcaf3e7d9e, 2026-05-05)"
   sodipodi:docname="gta-4.svg"
   xmlns:inkscape="http://www.inkscape.org/namespaces/inkscape"
   xmlns:sodipodi="http://sodipodi.sourceforge.net/DTD/sodipodi-0.dtd"
   xmlns:xlink="http://www.w3.org/1999/xlink"
   xmlns="http://www.w3.org/2000/svg"
   xmlns:svg="http://www.w3.org/2000/svg">
  <sodipodi:namedview
     id="namedview7"
     pagecolor="#ffffff"
     bordercolor="#000000"
     borderopacity="0.25"
     inkscape:showpageshadow="2"
     inkscape:pageopacity="0.0"
     inkscape:pagecheckerboard="0"
     inkscape:deskcolor="#d1d1d1"
     inkscape:document-units="px"
     showgrid="false"
     inkscape:zoom="16.645833"
     inkscape:cx="23.969962"
     inkscape:cy="24"
     inkscape:window-width="1920"
     inkscape:window-height="1008"
     inkscape:window-x="0"
     inkscape:window-y="0"
     inkscape:window-maximized="1"
     inkscape:current-layer="svg5" />
  <defs
     id="defs2">
    <linearGradient
       id="linearGradient10"
       inkscape:collect="always">
      <stop
         style="stop-color:#494949;stop-opacity:1;"
         offset="0"
         id="stop9" />
      <stop
         style="stop-color:#626262;stop-opacity:1;"
         offset="1"
         id="stop10" />
    </linearGradient>
    <linearGradient
       id="linearGradient5"
       inkscape:collect="always">
      <stop
         style="stop-color:#000000;stop-opacity:1;"
         offset="0"
         id="stop5" />
      <stop
         style="stop-color:#000000;stop-opacity:0;"
         offset="1"
         id="stop6" />
    </linearGradient>
    <linearGradient
       id="linearGradient1"
       inkscape:collect="always">
      <stop
         style="stop-color:#f2f2f2;stop-opacity:1;"
         offset="0"
         id="stop1" />
      <stop
         style="stop-color:#d5d9db;stop-opacity:1;"
         offset="1"
         id="stop2" />
    </linearGradient>
    <linearGradient
       inkscape:collect="always"
       xlink:href="#linearGradient10"
       id="linearGradient2"
       x1="30"
       y1="36"
       x2="22"
       y2="12"
       gradientUnits="userSpaceOnUse"
       gradientTransform="translate(-2)" />
    <linearGradient
       inkscape:collect="always"
       xlink:href="#linearGradient1"
       id="linearGradient4"
       x1="18.269712"
       y1="10"
       x2="26.5"
       y2="38"
       gradientUnits="userSpaceOnUse" />
    <linearGradient
       inkscape:collect="always"
       xlink:href="#linearGradient5"
       id="linearGradient6"
       x1="11.5"
       y1="19"
       x2="20"
       y2="30.573826"
       gradientUnits="userSpaceOnUse" />
    <linearGradient
       inkscape:collect="always"
       xlink:href="#linearGradient5"
       id="linearGradient8"
       x1="32"
       y1="12"
       x2="48"
       y2="26.934549"
       gradientUnits="userSpaceOnUse" />
  </defs>
  <path
     id="path1"
     style="opacity:1;fill:url(#linearGradient4);fill-opacity:1"
     d="m 4,10 v 11 h 3 v 6 H 4 V 38 H 20 V 27 h -3 v -6 h 3.5 l 6,17 h 9 l 6,-17 H 44 V 10 Z"
     sodipodi:nodetypes="ccccccccccccccccc" />
  <path
     id="path2"
     style="opacity:0.2;fill:#000000;fill-opacity:1"
     d="M 4 37 L 4 38 L 20 38 L 20 37 L 4 37 z M 26.146484 37 L 26.5 38 L 35.5 38 L 35.853516 37 L 26.146484 37 z " />
  <path
     id="rect4"
     style="opacity:0.2;fill:url(#linearGradient6)"
     d="M 6 19 L 10 23 L 10.363281 30.322266 L 6 36 L 8 38 L 20 38 L 20 27 L 17 27 L 17 21 L 15 19 L 6 19 z " />
  <path
     id="path1-4"
     style="opacity:0.2;fill:url(#linearGradient8)"
     d="M 42 12 L 28 36 L 30 38 L 35 38 L 41 21 L 44 21 L 44 14 L 42 12 z " />
  <path
     id="path4"
     style="fill:url(#linearGradient2)"
     d="M 6 12 L 6 19 L 9 19 L 9 29 L 6 29 L 6 36 L 18 36 L 18 29 L 15 29 L 15 19 L 18 19 L 18 12 L 6 12 z M 20 12 L 20 19 L 22 19 L 28 36 L 34 36 L 40 19 L 42 19 L 42 12 L 32 12 L 32 19 L 34 19 L 31 27.5 L 28 19 L 30 19 L 30 12 L 20 12 z " />
</svg>
