<?xml version="1.0" encoding="UTF-8" standalone="no"?>
<!-- Created with Inkscape (http://www.inkscape.org/) -->

<svg
   width="48"
   height="48"
   viewBox="0 0 48 48"
   version="1.1"
   id="svg1"
   inkscape:version="1.4.4 (dcaf3e7d9e, 2026-05-05)"
   sodipodi:docname="gta-sa.svg"
   xmlns:inkscape="http://www.inkscape.org/namespaces/inkscape"
   xmlns:sodipodi="http://sodipodi.sourceforge.net/DTD/sodipodi-0.dtd"
   xmlns:xlink="http://www.w3.org/1999/xlink"
   xmlns="http://www.w3.org/2000/svg"
   xmlns:svg="http://www.w3.org/2000/svg">
  <sodipodi:namedview
     id="namedview1"
     pagecolor="#ffffff"
     bordercolor="#000000"
     borderopacity="0.25"
     inkscape:showpageshadow="2"
     inkscape:pageopacity="0.0"
     inkscape:pagecheckerboard="0"
     inkscape:deskcolor="#d1d1d1"
     inkscape:document-units="px"
     inkscape:zoom="11.979167"
     inkscape:cx="24"
     inkscape:cy="24"
     inkscape:window-width="1440"
     inkscape:window-height="826"
     inkscape:window-x="0"
     inkscape:window-y="0"
     inkscape:window-maximized="1"
     inkscape:current-layer="svg1" />
  <defs
     id="defs1">
    <linearGradient
       id="linearGradient1"
       inkscape:collect="always">
      <stop
         style="stop-color:#f2f2f2;stop-opacity:1;"
         offset="0"
         id="stop1" />
      <stop
         style="stop-color:#d5d9db;stop-opacity:1;"
         offset="1"
         id="stop2" />
    </linearGradient>
    <linearGradient
       id="linearGradient3"
       inkscape:collect="always">
      <stop
         style="stop-color:#494949;stop-opacity:1;"
         offset="0"
         id="stop3" />
      <stop
         style="stop-color:#717171;stop-opacity:1;"
         offset="1"
         id="stop4" />
    </linearGradient>
    <linearGradient
       id="linearGradient5"
       inkscape:collect="always">
      <stop
         style="stop-color:#000000;stop-opacity:1;"
         offset="0"
         id="stop5" />
      <stop
         style="stop-color:#000000;stop-opacity:0;"
         offset="1"
         id="stop6" />
    </linearGradient>
    <linearGradient
       inkscape:collect="always"
       xlink:href="#linearGradient3"
       id="linearGradient511"
       x1="42"
       y1="35.999981"
       x2="27.55826"
       y2="11.999928"
       gradientUnits="userSpaceOnUse" />
    <linearGradient
       inkscape:collect="always"
       xlink:href="#linearGradient1"
       id="linearGradient513"
       x1="28.555666"
       y1="10"
       x2="43.999779"
       y2="38"
       gradientUnits="userSpaceOnUse" />
    <linearGradient
       inkscape:collect="always"
       xlink:href="#linearGradient5"
       id="linearGradient515"
       x1="21.753174"
       y1="17.505959"
       x2="41.829346"
       y2="38"
       gradientUnits="userSpaceOnUse" />
  </defs>
  <path
     id="path2"
     style="fill:url(#linearGradient513);stroke-width:1.93219"
     d="m 13.453125,10 c -1.3541,0.03059 -2.231411,0.611758 -2.646484,0.91408 -0.409545,0.298296 -0.600677,0.494525 -0.826172,0.707046 l -0.0039,0.0039 c -0.0022,0.0021 -0.0055,0.0058 -0.0078,0.0078 -0.671248,0.627673 -1.18511,1.218072 -1.705078,1.9141 -0.0065,0.0086 -0.01302,0.01669 -0.01953,0.02539 -0.675083,0.919542 -1.029358,1.725113 -1.384766,2.607473 -0.261205,0.648487 -0.411655,1.381798 -0.537109,2.224652 -0.777897,1.096529 -1.363,2.187343 -1.558594,3.294986 -0.244622,1.385295 -0.349499,2.774929 0.455078,4.498135 0.0026,0.0049 0.0052,0.01071 0.0078,0.01563 0.126121,0.266562 0.421004,0.398061 0.578126,0.644544 C 4.75575,28.125552 4,29.589392 4,31.156663 c 0,2.194161 1.212497,4.572145 3.378906,5.703236 2.162544,1.129078 4.717971,0.919142 6.779297,-0.0039 0.108636,-0.04848 0.198165,-0.111042 0.300781,-0.158206 0.122818,0.07473 0.259354,0.166697 0.376954,0.234379 1.15493,0.531419 1.165937,0.532745 2.074695,0.797186 0.140473,0.01417 0.379714,0.0033 0.521008,0.0036 1.747082,0 1.830995,-0.395236 2.091797,-0.537121 0.260795,-0.141891 0.395063,-0.237282 0.521484,-0.326177 0.252841,-0.177803 0.434419,-0.325912 0.632812,-0.490245 0.147509,-0.122186 0.31282,-0.279464 0.466797,-0.41407 0.284743,0.376985 0.369756,0.855396 0.779297,1.146507 1.45777,1.035388 4.504265,1.255977 6.175781,0.175784 0.0184,-0.01085 0.03651,-0.02207 0.05469,-0.0332 0.263585,-0.176402 0.431532,-0.58749 0.705078,-0.904314 l 1.123047,0.597668 c 1.460627,0.77901 3.285312,0.622171 4.570312,-0.392585 l 0.167969,-0.132816 c 0.647351,0.349565 1.262265,0.726576 2.523438,0.726577 1.810961,0 2.479229,-0.528424 3.242187,-0.986348 0.758422,-0.455209 1.421633,-0.976512 2.058594,-1.742221 v -0.0039 c 0.481799,-0.57636 0.961675,-1.07533 1.335937,-2.210981 0.372844,-1.131348 -0.153751,-3.490276 -1.261718,-4.451259 -0.04013,-0.03659 -0.200357,-0.127317 -0.261719,-0.17969 -0.01364,-1.178382 -0.02344,-2.458206 -0.02344,-4.023517 v -5.691517 l -0.277343,0.285162 c 0.0212,-0.02298 0.04191,-0.04683 0.0625,-0.07031 0.343953,-0.370141 0.627779,-0.630977 1.02539,-1.300806 0.1988,-0.334913 0.487813,-0.797551 0.564453,-1.720737 0.0329,-0.395645 -0.585937,-2.217337 -0.585937,-2.217337 L 41.49424,11.14985 c 0,0 -1.368934,-0.287929 -1.896584,-0.292411 -0.687456,-0.0059 -1.087904,0.108603 -1.410156,0.203129 -0.6445,0.189049 -0.992446,0.376647 -1.355469,0.57423 -0.01,0.0055 -0.02119,0.01403 -0.03125,0.01953 -0.41996,0.03861 -0.211561,-0.07176 -0.763672,0.333991 -0.86054,-0.391303 -1.60459,-0.992151 -2.505859,-1.140647 h -0.0039 c -0.680475,-0.115975 -1.385688,-0.218076 -2.189453,-0.195316 -0.794749,0.02263 -1.478847,0.160964 -2.142579,0.3086 -2.48518,0.534272 -4.602873,2.018474 -6.144531,3.898513 -0.111,-0.259801 0.03436,-0.469491 -0.144531,-0.69728 -0.854295,-1.087662 -1.346936,-1.133057 -1.382812,-1.144553 -0.260889,-0.160984 -0.764007,-0.785478 -2.607422,-0.751968 -0.04878,8.75e-4 -0.06879,0.03047 -0.117188,0.0332 -0.526533,-0.288165 -1.118401,-0.614832 -2.785156,-1.584015 -0.02778,-0.01615 -0.05754,-0.03036 -0.08594,-0.04687 -0.396407,-0.243162 -1.228682,-0.683317 -2.455078,-0.664076 h -0.0039 -0.0039 V 10 h -0.0039 -0.0039 z"
     sodipodi:nodetypes="cscccccscscccsscccccscsccccccccssccsccscccsccccsccccccccccccscccccccc" />
  <path
     id="path9"
     style="fill:url(#linearGradient515);stroke:none;stroke-width:2.21566;opacity:0.2"
     d="m 12.214844,12 c -0.1789,0.0039 -0.381625,0.174575 -0.828125,0.609375 -0.4046,0.3909 -1.046323,1.140591 -1.4140628,1.650391 -0.69874,0.9855 -1.5820312,3.245525 -1.5820312,4.078125 0,0.2718 -0.2026956,0.713053 -0.4785156,1.001953 -1.10329,1.2064 -1.5635119,3.94174 -0.9199219,5.36914 0.2612829,0.571804 0.6349296,1.071318 1.1015625,1.482422 0.8190659,0.756661 1.6448377,1.515989 2.464844,2.275391 l 0.002,0.002 c -0.07477,-0.0068 -0.15536,-0.01525 -0.240235,-0.02344 C 9.1803,28.343357 8.8674245,28.377737 8.2422345,28.683639 6.8074925,29.36268 6,30.63855 6,32.21875 v 0.002 c 2.231e-4,1.069052 0.3654554,1.909601 0.9726562,2.455078 1.061088,0.97998 2.1222225,1.959716 3.1835938,2.939453 1.384399,0.08437 2.780041,-0.212605 4.001953,-0.759765 0.108636,-0.04848 0.198165,-0.111039 0.300781,-0.158203 0.122818,0.07473 0.259353,0.166693 0.376954,0.234375 1.15493,0.531419 1.16546,0.532434 2.074218,0.796875 0.140473,0.01417 0.380191,0.0036 0.521485,0.0039 1.747082,0 1.830995,-0.395225 2.091797,-0.53711 0.260795,-0.141891 0.395063,-0.237276 0.521484,-0.326171 0.252841,-0.177803 0.434419,-0.325902 0.632812,-0.490235 0.147509,-0.122186 0.31282,-0.279456 0.466797,-0.414062 0.284743,0.376985 0.369756,0.855373 0.779297,1.146484 1.45777,1.035388 4.504265,1.255974 6.175781,0.175781 0.0184,-0.01085 0.03651,-0.02207 0.05469,-0.0332 0.263585,-0.176402 0.431532,-0.587473 0.705078,-0.904297 l 1.123047,0.597657 c 1.460627,0.77901 3.285312,0.622177 4.570312,-0.392578 l 0.167969,-0.132813 c 0.647351,0.349565 1.262265,0.726562 2.523438,0.726563 1.810961,0 2.479229,-0.528405 3.242187,-0.986329 0.758422,-0.455209 1.421633,-0.976478 2.058594,-1.742187 v -0.0039 c 0.481799,-0.57636 0.961675,-1.075287 1.335937,-2.210938 0.372844,-1.131348 -0.153751,-3.490189 -1.261718,-4.451172 -0.04013,-0.03659 -0.200357,-0.127314 -0.261719,-0.179687 -0.01364,-1.178382 -0.02344,-2.458127 -0.02344,-4.023438 v -5.691406 l -0.277343,0.285156 c 0.0212,-0.02298 0.04191,-0.04683 0.0625,-0.07031 0.343953,-0.370141 0.627779,-0.630953 1.02539,-1.300781 0.198527,-0.334454 0.487337,-0.79614 0.564453,-1.716797 -0.769558,-0.7132 -1.500477,-1.39054 -2.179687,-2.021485 -0.2221,-0.2021 -1.28811,0.409357 -2.849609,1.597656 l -0.002,0.002 L 38,15.179688 37.208984,14.482422 c -0.9743,-0.8662 -1.948503,-1.3246 -3.345703,-1.5625 h -0.002 c -0.6706,-0.1189 -1.108769,-0.172856 -1.542969,-0.160156 v -0.002 c -0.4342,0.0128 -0.867696,0.09319 -1.529297,0.246094 -2.298099,0.5098 -3.987465,1.715663 -5.072265,3.601563 -0.695145,1.20773 -1.033147,2.18454 -1.15625,3.492187 -0.0037,-0.0036 -5.476778,-5.056082 -5.482422,-5.060547 -0.0633,-0.06998 -0.164938,-0.121707 -0.294922,-0.199218 -0.4407,-0.2714 -0.495372,-0.271124 -0.826172,0.01758 -0.3673,0.3054 -0.423906,0.286772 -5.441406,-2.736328 h -0.002 C 12.395987,12.041613 12.308344,11.9979 12.214844,12 Z" />
  <path
     d="m 12.215784,11.999981 c -0.17892,0.0039 -0.383224,0.17448 -0.829708,0.609361 -0.404542,0.39081 -1.04555,1.140868 -1.413318,1.650624 -0.698742,0.985522 -1.582072,3.245414 -1.582072,4.078014 0,0.271866 -0.202317,0.712226 -0.478137,1.001086 -1.103284,1.206418 -1.564706,3.943078 -0.921117,5.37039 0.69876,1.52926 2.208049,2.531264 4.120418,2.752158 0.99296,0.10196 1.083356,0.18566 0.752364,0.763372 -0.18386,0.32284 -0.311394,0.339918 -1.5434,0.220976 C 9.180737,28.344012 8.868219,28.377822 8.243027,28.68368 6.80875,29.363352 6,30.639058 6,32.219296 c 0,2.684706 2.29789,3.925592 4.96419,2.685196 0.551642,-0.254876 1.268658,-0.64627 1.599652,-0.867164 0.312594,-0.220894 0.700188,-0.408472 0.847286,-0.40847 0.1287,0 0.864134,0.42437 1.59965,0.934124 0.724044,0.501792 1.433848,0.92114 1.56098,0.934128 0.294216,0 3.367322,-2.955218 4.102838,-3.940744 0.330994,-0.441786 0.955222,-1.477856 1.378162,-2.293462 0.680362,-1.308368 0.773736,-1.66577 0.847286,-2.90617 0.05508,-1.240402 -0.0017,-1.51134 -0.44298,-2.326948 -0.625212,-1.189424 -1.818624,-2.16037 -3.712596,-3.009958 -0.84586,-0.37382 -1.562874,-0.72914 -1.599648,-0.780114 -0.03672,-0.06796 0.366774,-1.0873 0.900022,-2.276722 1.323952,-2.92259 1.304822,-2.787314 0.734782,-3.12715 -0.441318,-0.271866 -0.495218,-0.2721 -0.82619,0.0168 -0.367768,0.305858 -0.42236,0.289124 -5.44233,-2.735414 -0.11376,-0.07592 -0.201578,-0.119302 -0.29532,-0.11718 z m 20.099348,0.756679 c -0.434422,0.0128 -0.86736,0.09148 -1.52934,0.244412 -2.298514,0.509752 -3.988268,1.71649 -5.073176,3.60258 -0.919408,1.597228 -1.212922,2.788222 -1.212922,4.878214 0,2.361862 0.383866,3.65255 1.487148,5.028882 0.416328,0.551966 0.779794,1.041738 0.791038,1.121622 0,0.06796 -0.403534,0.696152 -0.900024,1.392818 -2.335292,3.296406 -2.885748,5.65715 -1.543398,6.642674 0.551642,0.407802 1.119138,0.443876 1.652384,0.08706 0.29422,-0.203892 0.387012,-0.475762 0.46056,-1.359338 0.07362,-1.206418 0.258876,-1.44639 1.086356,-1.44639 0.790688,0 2.498186,0.630786 3.969242,1.44639 l 1.381676,0.763372 1.451992,-1.188582 c 0.796438,-0.635604 1.507616,-1.175312 1.617228,-1.191932 h 0.0036 l 0.0036,0.0034 c 0.08658,0.02028 0.407342,0.351574 0.710172,0.746632 0.551646,0.713654 1.508844,1.289028 2.134042,1.289028 0.643586,0 1.783066,-0.711644 2.408266,-1.493264 0.809078,-1.002516 0.973278,-1.511676 0.587124,-1.85151 -0.257434,-0.237886 -0.34757,-0.239394 -0.917602,0.10044 -0.316622,0.16936 -0.622422,0.281882 -0.717206,0.251108 l -0.0036,-0.0034 c -0.0014,-7.06e-4 -0.0092,-0.0026 -0.0106,-0.0034 l -0.0036,-0.0034 v -0.0034 c -0.07356,-0.05096 -0.13008,-3.83944 -0.13008,-8.427224 v -8.30982 l 0.864866,-0.917386 c 0.625196,-0.696666 0.790482,-0.985686 0.643376,-1.12162 -0.220656,-0.203892 -1.288248,0.407628 -2.851244,1.597054 l -0.678534,0.545938 -0.791036,-0.69641 c -0.974556,-0.86658 -1.949442,-1.325688 -3.346944,-1.563572 -0.671168,-0.11894 -1.108976,-0.17344 -1.543396,-0.1607 z m -19.71965,3.06353 h 0.0036 0.0036 0.0036 c 0.0013,7.6e-5 0.0092,-2.26e-4 0.0106,0 l 0.0036,0.0034 c 0.07362,0.034 0.920392,0.507318 1.894972,1.068052 1.985918,1.138446 1.948456,1.071974 1.212922,2.61823 l -0.351574,0.746632 -0.861348,-0.11718 c -1.838818,-0.220958 -2.945348,-1.22363 -2.72468,-2.481024 0.12278,-0.680548 0.616328,-1.795244 0.8051,-1.83812 z m 19.259088,0.308026 c 0.625198,0 1.397934,0.08554 1.74731,0.18748 0.809082,0.254878 0.788842,0.220144 0.439468,0.729892 -0.294214,0.407806 -0.386542,0.42312 -1.269174,0.338162 -1.710106,-0.18692 -3.105542,0.664592 -3.877834,2.363774 -0.14706,0.339834 -0.277742,0.816772 -0.277742,1.05466 v 0.458692 l 0.773456,-0.612706 c 0.827466,-0.662682 1.950458,-1.070812 2.446938,-0.883904 0.275826,0.08496 0.255794,0.18674 -0.203916,0.917384 -0.735536,1.172436 -3.3659,4.791166 -3.494622,4.791166 h -0.0036 l -0.0036,-0.0034 h -0.0036 c -0.07468,-0.0505 -0.317994,-0.471248 -0.576578,-0.981002 -0.441318,-0.86658 -0.495714,-1.171918 -0.495714,-2.752154 0,-1.59723 0.05364,-1.88817 0.513294,-2.805728 0.974562,-1.920076 2.299728,-2.785388 4.285656,-2.80238 z m 4.025496,2.802382 0.05624,3.127146 c 0.0184,1.733162 -0.0178,3.193104 -0.09142,3.261072 -0.1425,0.11522 -4.20784,0.452034 -4.461444,0.364944 h -0.0036 l -0.0036,-0.0034 v -0.0034 c 0,-0.05096 3.25319,-4.979326 4.025494,-6.0668 z m -26.606935,2.039006 0.404307,0.595964 c 0.220651,0.322842 0.587948,0.780444 0.808614,0.984352 0.514868,0.543734 1.489936,0.985432 2.464518,1.138358 0.882634,0.13594 0.846184,0.10196 0.551968,0.67967 -0.275822,0.560728 -0.884456,0.560728 -2.116462,0 -1.158456,-0.543738 -1.85684,-1.426462 -2.003958,-2.54792 z m 6.222817,2.859296 c 0.10458,-0.0032 0.236722,0.015 0.414852,0.04686 0.36777,0.05096 1.065308,0.205312 1.5434,0.35825 1.691722,0.492766 2.52077,1.477604 2.52077,2.989874 0,0.747638 -0.1464,1.189506 -0.734786,2.259986 -0.404524,0.747636 -0.901666,1.530174 -1.103932,1.751066 -0.349372,0.373822 -0.40353,0.388554 -0.660958,0.15068 -0.25744,-0.237882 -0.222794,-0.340252 0.365634,-1.104884 1.158458,-1.495278 1.472778,-2.817942 0.92112,-3.803466 -0.330976,-0.611704 -1.893466,-1.343936 -3.125472,-1.47987 -0.882634,-0.08496 -0.921616,-0.13752 -0.59064,-0.8002 0.12636,-0.257002 0.219848,-0.361268 0.450012,-0.368292 z m -1.163704,3.937394 c 0.520628,0.0154 1.216198,0.1711 1.560978,0.37499 0.239048,0.13594 0.479218,0.356238 0.53439,0.49217 0.1287,0.32285 -0.406508,1.411152 -0.75588,1.530094 h -0.0036 c -0.212174,0.05356 -2.297178,-0.768172 -2.643818,-1.037916 l -0.0036,-0.0034 -0.0036,-0.0034 -0.0036,-0.0034 v -0.0034 l -0.0036,-0.0034 c -0.07572,-0.18898 0.63156,-1.260132 0.878928,-1.309116 0.11502,-0.02974 0.269438,-0.03854 0.44298,-0.0335 z m 18.42235,0.154 h 3.237974 l -0.05624,1.868252 -0.05624,1.868252 -0.734786,0.391732 c -1.268786,0.662676 -2.115406,0.52566 -5.333338,-0.833684 -0.901032,-0.37382 -1.689442,-0.712648 -1.726218,-0.74663 h -0.0036 c -0.009,-0.03438 0.283824,-0.619974 0.682048,-1.28903 l 0.75588,-1.242152 z m -23.847097,3.02002 c 0.152464,0.0036 0.356666,0.08306 0.734784,0.224324 0.367767,0.15292 1.082885,0.51134 1.560979,0.800202 l 0.900022,0.525652 -0.421886,0.32477 c -1.397502,1.01951 -3.032489,1.306024 -3.547357,0.60936 -0.459713,-0.594714 -0.367971,-1.596468 0.16524,-2.089232 0.29996,-0.277176 0.412266,-0.39948 0.608218,-0.395076 z"
     id="path5"
     style="fill:url(#linearGradient511);stroke:none;stroke-width:2.21566" />
  <path
     id="path2-2"
     style="opacity:0.2;fill:#000000;stroke-width:1.93219"
     d="m 43.636719,14.566406 c -0.12007,0.594506 -0.334204,0.940881 -0.492188,1.207032 -0.397611,0.669829 -0.681437,0.93064 -1.02539,1.300781 -0.02059,0.02348 -0.0413,0.04733 -0.0625,0.07031 l 0.277343,-0.285156 v 0.986328 c 0.256166,-0.272612 0.49826,-0.546177 0.810547,-1.072265 0.1988,-0.334914 0.487813,-0.797518 0.564453,-1.720704 0.0079,-0.095 -0.0226,-0.271837 -0.07227,-0.486328 z M 4.6035156,22.919922 c -0.069194,1.00297 0.04527,2.05662 0.6152344,3.277344 0.0026,0.0049 0.00521,0.01071 0.00781,0.01563 0.036568,0.07729 0.087061,0.144404 0.1445313,0.205078 C 5.5085414,26.227648 5.6537075,26.039907 5.804685,25.857427 5.647563,25.610944 5.352681,25.479458 5.22656,25.212896 5.22396,25.207996 5.22135,25.202166 5.21875,25.197266 4.8344094,24.374103 4.656701,23.626737 4.6035156,22.919922 Z M 4.0234375,30.683594 C 4.0083555,30.840412 4,30.997205 4,31.15625 c 0,2.194161 1.2124973,4.572034 3.3789062,5.703125 2.1625441,1.129078 4.7179708,0.919136 6.7792968,-0.0039 0.108636,-0.04848 0.198165,-0.111039 0.300781,-0.158203 0.122818,0.07473 0.259353,0.166693 0.376954,0.234375 1.15493,0.531419 1.16546,0.532434 2.074218,0.796875 0.140473,0.01417 0.380191,0.0036 0.521485,0.0039 1.747082,0 1.830995,-0.395225 2.091797,-0.53711 0.260795,-0.141891 0.395063,-0.237276 0.521484,-0.326171 0.252841,-0.177803 0.434419,-0.325902 0.632812,-0.490235 0.147509,-0.122186 0.31282,-0.279456 0.466797,-0.414062 0.284743,0.376985 0.369756,0.855373 0.779297,1.146484 1.45777,1.035388 4.504265,1.255974 6.175781,0.175781 0.0184,-0.01085 0.03651,-0.02207 0.05469,-0.0332 0.263585,-0.176402 0.431532,-0.587473 0.705078,-0.904297 l 1.123047,0.597657 c 1.460627,0.77901 3.285312,0.622177 4.570312,-0.392578 l 0.167969,-0.132813 c 0.647351,0.349565 1.262265,0.726562 2.523438,0.726563 1.810961,0 2.479229,-0.528405 3.242187,-0.986329 0.758422,-0.455209 1.421633,-0.976478 2.058594,-1.742187 v -0.0039 c 0.481799,-0.57636 0.961675,-1.075287 1.335937,-2.210938 0.121261,-0.36795 0.147919,-0.865019 0.08984,-1.402344 -0.01969,0.146317 -0.04986,0.281023 -0.08984,0.402344 -0.374262,1.135651 -0.854138,1.634578 -1.335937,2.210938 v 0.0039 c -0.636961,0.765709 -1.300172,1.286978 -2.058594,1.742187 -0.762958,0.457924 -1.431226,0.986329 -3.242187,0.986329 -1.261173,-2e-6 -1.876087,-0.376998 -2.523438,-0.726563 l -0.167969,0.132813 c -1.285,1.014755 -3.109685,1.171588 -4.570312,0.392578 l -1.123047,-0.597657 c -0.273546,0.316824 -0.441493,0.727895 -0.705078,0.904297 -0.01818,0.01113 -0.03629,0.02235 -0.05469,0.0332 -1.671516,1.080193 -4.718011,0.859607 -6.175781,-0.175781 -0.409541,-0.291111 -0.494554,-0.769499 -0.779297,-1.146484 -0.153977,0.134606 -0.319288,0.291876 -0.466797,0.414062 -0.198393,0.164333 -0.379971,0.312432 -0.632812,0.490235 -0.126421,0.0889 -0.260689,0.18428 -0.521484,0.326171 -0.260802,0.141886 -0.344715,0.53711 -2.091797,0.53711 -0.141294,-3e-4 -0.381012,0.01026 -0.521485,-0.0039 -0.908758,-0.264441 -0.919288,-0.265456 -2.074218,-0.796875 -0.117601,-0.06768 -0.254136,-0.159645 -0.376954,-0.234375 -0.102616,0.04716 -0.192145,0.109723 -0.300781,0.158203 -2.061326,0.923042 -4.6167527,1.132984 -6.7792968,0.0039 -1.9941535,-1.041156 -3.1794887,-3.1375 -3.3554687,-5.175781 z" />
</svg>
