<?xml version="1.0" encoding="UTF-8" standalone="no"?>
<!-- Created with Inkscape (http://www.inkscape.org/) -->

<svg
   width="48"
   height="48"
   viewBox="0 0 48 48"
   version="1.1"
   id="svg1"
   inkscape:version="1.4.4 (dcaf3e7d9e, 2026-05-05)"
   sodipodi:docname="gta-vice-city.svg"
   xmlns:inkscape="http://www.inkscape.org/namespaces/inkscape"
   xmlns:sodipodi="http://sodipodi.sourceforge.net/DTD/sodipodi-0.dtd"
   xmlns:xlink="http://www.w3.org/1999/xlink"
   xmlns="http://www.w3.org/2000/svg"
   xmlns:svg="http://www.w3.org/2000/svg">
  <sodipodi:namedview
     id="namedview1"
     pagecolor="#ffffff"
     bordercolor="#000000"
     borderopacity="0.25"
     inkscape:showpageshadow="2"
     inkscape:pageopacity="0.0"
     inkscape:pagecheckerboard="0"
     inkscape:deskcolor="#d1d1d1"
     inkscape:document-units="px"
     inkscape:zoom="16.645833"
     inkscape:cx="23.969962"
     inkscape:cy="24"
     inkscape:window-width="1920"
     inkscape:window-height="1008"
     inkscape:window-x="0"
     inkscape:window-y="0"
     inkscape:window-maximized="1"
     inkscape:current-layer="svg1" />
  <defs
     id="defs1">
    <linearGradient
       id="linearGradient1006"
       inkscape:collect="always">
      <stop
         style="stop-color:#000000;stop-opacity:1;"
         offset="0"
         id="stop1006" />
      <stop
         style="stop-color:#000000;stop-opacity:0;"
         offset="1"
         id="stop1007" />
    </linearGradient>
    <linearGradient
       id="linearGradient1"
       inkscape:collect="always">
      <stop
         style="stop-color:#ec48a5;stop-opacity:1;"
         offset="0"
         id="stop1" />
      <stop
         style="stop-color:#f381c1;stop-opacity:1;"
         offset="1"
         id="stop2" />
    </linearGradient>
    <linearGradient
       inkscape:collect="always"
       xlink:href="#linearGradient1"
       id="linearGradient2"
       x1="16.524698"
       y1="3.0458109"
       x2="34.126633"
       y2="39"
       gradientUnits="userSpaceOnUse"
       gradientTransform="translate(2.0000006,3.000024)" />
    <linearGradient
       inkscape:collect="always"
       xlink:href="#linearGradient1006"
       id="linearGradient1007"
       x1="23.506941"
       y1="14.702503"
       x2="41.006516"
       y2="32.060345"
       gradientUnits="userSpaceOnUse" />
    <linearGradient
       inkscape:collect="always"
       xlink:href="#linearGradient3"
       id="linearGradient1009"
       x1="18.048828"
       y1="4.0000196"
       x2="36.126953"
       y2="44"
       gradientUnits="userSpaceOnUse" />
    <linearGradient
       id="linearGradient3"
       inkscape:collect="always">
      <stop
         style="stop-color:#494949;stop-opacity:1;"
         offset="0"
         id="stop3" />
      <stop
         style="stop-color:#717171;stop-opacity:1;"
         offset="1"
         id="stop4" />
    </linearGradient>
  </defs>
  <path
     id="path3"
     style="baseline-shift:baseline;display:inline;overflow:visible;vector-effect:none;fill-rule:evenodd;stroke:none;stroke-linejoin:round;enable-background:accumulate;stop-color:#000000;fill:url(#linearGradient1009)"
     d="m 18.048828,4.000024 c -0.208194,0.00101 -0.414656,0.034424 -0.613281,0.099609 -0.503621,0.1659059 -1.084794,0.483339 -1.476563,1.2167968 v 0.00195 c -0.0036,0.00679 -0.0081,0.012672 -0.01172,0.019531 l -3.001952,5.4980502 c -0.767343,1.405738 -0.817622,1.459383 -1.359374,2.435547 -0.21152,-0.294978 -0.342216,-0.715878 -0.552734,-0.855468 -0.0019,-0.0013 -0.0039,-0.0026 -0.0059,-0.0039 -0.52323,-0.344243 -1.3407941,-0.462177 -1.8085534,-0.404294 -0.024798,0.0028 -0.049542,0.0061 -0.074219,0.0098 -0.56439,0.09149 -1.2070427,0.490495 -1.6152343,1.080078 -0.2649665,0.382049 -0.5292969,0.937165 -0.5292969,1.466797 V 14.7012 c -8.88e-5,0.135809 0.013654,0.271273 0.041016,0.404297 l 0.9042969,4.40039 c -0.00432,-0.0343 -0.00649,-0.06905 -0.00977,-0.103515 l 0.033203,0.21289 -0.021484,-0.09961 c 0.05839,0.452757 0.2086322,0.889764 0.4394532,1.283203 0.01508,0.02508 0.030709,0.04983 0.046875,0.07422 0.3920899,0.605819 1.001855,1.033644 1.6972655,1.201172 0.0084,0.002 0.01692,0.004 0.02539,0.0059 1.02959,0.23386 2.042312,-0.257204 2.572266,-0.667969 0.102021,-0.07863 0.196208,-0.166931 0.28125,-0.263671 0.257796,-0.295249 0.491551,-0.611048 0.699218,-0.94336 0.01839,-0.03013 0.03597,-0.06074 0.05274,-0.0918 l 0.419922,-0.757812 c 0.275874,0.553415 0.718745,1.042228 1.289062,1.263672 0.530865,0.200422 1.367655,0.201664 1.896485,0 0.603517,-0.23466 1.041738,-0.712988 1.30664,-1.214844 0.08328,0.04244 0.169425,0.07898 0.257813,0.109375 0.824269,0.265541 1.708054,0.276857 2.541015,0.04102 0.03469,-0.0095 0.06887,-0.02024 0.103516,-0.03125 0.02191,-0.01135 0.04438,-0.02206 0.06641,-0.0332 0.02385,-0.0122 0.04795,-0.02393 0.07227,-0.03516 0.167585,-0.07662 0.3543,-0.162724 0.570312,-0.246094 0.45651,-0.252205 0.909184,-0.578038 1.359375,-0.859375 0.47026,0.222401 0.976617,0.371295 1.476563,0.38086 0.357565,0.0068 0.651529,-0.18519 0.982422,-0.257813 l -0.246094,0.09961 c -0.04901,0.01957 -0.09722,0.04107 -0.144531,0.06445 -0.233422,0.115587 -0.368505,0.472471 -0.585938,0.691406 -0.467529,-0.277044 -0.935391,-0.464844 -1.376953,-0.464844 -0.161938,8e-6 -0.323275,0.01968 -0.480469,0.05859 l -0.371093,0.08984 v 0.002 c -0.229432,0.05683 -0.431688,0.125227 -0.613282,0.195312 -0.235089,0.129879 -0.471799,0.239091 -0.708984,0.314454 -1.23249,0.638221 -2.294497,1.603266 -3.205078,2.820312 -0.0033,0.0045 -0.0066,0.0091 -0.0098,0.01367 -0.286239,0.389679 -0.524833,0.813804 -0.75,1.287109 -0.0067,0.0136 -0.01318,0.02727 -0.01953,0.04102 -0.235493,0.524716 -0.413545,1.050326 -0.537109,1.568359 -6.7e-4,0.002 -0.0013,0.0039 -0.002,0.0059 -0.313299,1.331497 -0.217471,2.951873 0.904297,4.001953 0.0045,0.0039 0.0091,0.0078 0.01367,0.01172 0.876783,0.806989 2.314275,0.942312 3.292969,0.626953 0.978694,-0.315359 1.779707,-0.879174 2.662109,-1.621094 0.0065,-0.0058 0.01306,-0.01168 0.01953,-0.01758 l 0.03711,-0.03125 c 0.349423,0.368841 0.73423,0.66452 1.048828,0.789062 0.07334,0.02915 0.148341,0.05393 0.224609,0.07422 1.152138,0.303912 2.376752,-0.286871 3.042969,-1.017578 0.217706,-0.230745 0.388732,-0.60117 0.574219,-0.861328 0.299748,0.30802 0.497968,0.687498 0.894531,0.83789 0.590155,0.225505 1.335838,0.2572 1.917969,0.06836 0.596953,-0.193649 1.024364,-0.518122 1.380859,-0.851563 0.01386,-0.01283 0.02753,-0.02585 0.04102,-0.03906 0.115068,-0.113839 0.206948,-0.310115 0.314453,-0.435547 0.0065,0.002 0.01301,0.004 0.01953,0.0059 0.585596,0.20737 1.242055,0.119564 1.851563,-0.0957 -0.420744,4.300723 -0.983067,10.039119 -1.230469,11.964844 -0.398704,0.500401 -0.677734,1.195847 -0.677734,1.658203 v 0.02344 c 3.72e-4,0.03518 0.0017,0.07035 0.0039,0.105469 0.01757,0.330537 0.04258,0.661008 0.07617,0.990235 0.0022,0.02348 0.0048,0.04692 0.0078,0.07031 0.06994,0.506098 0.235159,1.092487 0.716797,1.628906 0.481638,0.53642 1.29879,0.853516 1.9375,0.853516 0.93601,0 1.947671,-0.727653 2.3125,-1.330078 0.08852,-0.145502 0.158092,-0.301714 0.207031,-0.464844 l 0.230469,-0.779297 c 0.02486,-0.08199 0.04443,-0.165498 0.05859,-0.25 l 0.300781,-1.855469 c -0.0043,-0.01699 -0.0089,-0.03391 -0.01367,-0.05078 l 0.01758,0.02148 c 0.29878,-2.03126 1.578066,-14.983349 1.685547,-16.72461 3.2e-5,-0.0065 3.2e-5,-0.01302 0,-0.01953 0.07024,-1.355887 0.121144,-2.138248 0.03711,-2.921875 -0.04108,-0.483585 -0.150564,-1.029131 -0.63086,-1.648438 -0.369344,-0.486461 -0.832435,-0.800599 -1.179687,-0.947265 -0.271449,-0.114758 -0.564904,-0.168113 -0.859375,-0.15625 l -0.556641,0.02148 c -0.316971,0.01316 -0.626264,0.101533 -0.902344,0.257813 -0.193107,0.109044 -0.374482,0.320713 -0.5625,0.478515 -0.100979,-0.107424 -0.155716,-0.259349 -0.269531,-0.349609 -0.02053,-0.01603 -0.04136,-0.03167 -0.0625,-0.04687 -0.643917,-0.471114 -1.333963,-0.616883 -2.041015,-0.685547 l 0.179687,-0.908203 c 0.02502,-0.128037 0.03745,-0.258214 0.03711,-0.388672 v -0.113281 c 0,-0.584628 -0.127124,-1.055137 -0.517578,-1.572266 -0.01465,-0.01849 -0.02962,-0.03673 -0.04492,-0.05469 -0.33696,-0.415458 -0.917715,-0.742539 -1.486328,-0.865234 -0.05052,-0.01176 -0.101459,-0.0051 -0.152344,-0.01367 -0.101782,-0.728267 -0.494632,-1.499873 -1.15039,-1.902344 -0.05262,-0.03244 -0.106713,-0.06242 -0.16211,-0.08984 -0.04036,-0.01989 -0.157651,-6.87e-4 -0.205078,-0.02148 v -0.01563 c 0,-0.8614625 -0.363726,-1.7585124 -0.898437,-2.3398436 -0.02159,-0.023311 -0.04373,-0.046103 -0.06641,-0.068359 L 29.40811,8.1740194 C 29.39086,8.1561154 29.37328,8.1385334 29.35538,8.1212854 28.624859,7.4510093 27.539691,7.1464022 26.63663,7.240426 26.6262,7.241646 26.61579,7.242946 26.60538,7.244336 25.233216,7.4086764 24.285126,8.3153566 23.5,9.3828365 23.128785,9.1611167 22.72119,9.0341225 22.283203,9.0117428 21.650152,8.9659742 21.081071,9.1239126 20.746094,9.2890865 20.629673,9.3465706 20.519125,9.415254 20.416016,9.4941646 L 19.90625,9.8828365 c -0.06803,0.05243 -0.132621,0.1091884 -0.193359,0.1699215 -0.292628,0.289929 -0.458793,0.513336 -0.677735,0.773438 -0.04148,0.04887 -0.08059,0.09971 -0.117187,0.152344 l -0.107422,0.15625 c -0.02889,-0.01917 -0.04432,-0.04437 -0.07422,-0.0625 l 1.779297,-3.2968754 -0.04102,0.066406 C 20.760214,7.3232037 20.867771,6.3984035 20.654297,5.7461178 20.454769,5.1722123 19.992258,4.541319 19.412109,4.2539302 19.195578,4.1462758 18.961319,4.0787776 18.720703,4.0547115 l -0.462891,-0.044922 c -0.06934,-0.00692 -0.139586,-0.010101 -0.208984,-0.00977 z m 0.240234,6.697266 0.05859,0.01953 c -0.0081,5.95e-4 -0.01569,0.0035 -0.02344,0.0039 -0.0032,-9.9e-5 -0.0076,-7.03e-4 -0.01172,-0.002 h -0.002 l -0.002,-0.0019 c -7.26e-4,-4.33e-4 -0.0052,-0.0034 -0.0059,-0.0039 l -0.002,-0.0019 c -0.0032,-0.0037 -0.0082,-0.01033 -0.01172,-0.01367 z" />
  <path
     id="path4"
     style="baseline-shift:baseline;display:inline;overflow:visible;vector-effect:none;fill:url(#linearGradient1007);fill-rule:evenodd;stroke-linejoin:round;enable-background:accumulate;stop-color:#000000;opacity:0.2"
     d="M 18.693359 6.1679688 C 16.207627 9.0345124 15.475705 11.640327 14.65625 13.140625 C 12.747284 16.6187 11.713329 17.201693 10.111328 19.785156 L 10.113281 19.785156 C 10.163921 19.863406 10.227566 19.932715 10.300781 19.988281 C 10.314911 20.000651 10.32879 20.012087 10.34375 20.023438 C 10.345262 20.024761 11.192888 20.717016 12.353516 21.664062 C 12.495545 21.581425 12.621821 21.494808 12.728516 21.412109 C 12.830537 21.333479 12.924724 21.245177 13.009766 21.148438 C 13.267562 20.853189 13.501317 20.53739 13.708984 20.205078 C 13.727374 20.174948 13.744949 20.144341 13.761719 20.113281 L 14.181641 19.355469 C 14.457515 19.908884 14.900386 20.397697 15.470703 20.619141 C 16.001568 20.819563 16.838358 20.820805 17.367188 20.619141 C 17.970705 20.384481 18.408926 19.906153 18.673828 19.404297 C 18.757108 19.446737 18.843253 19.483277 18.931641 19.513672 C 19.75591 19.779213 20.639695 19.790525 21.472656 19.554688 C 21.507346 19.545188 21.541526 19.534447 21.576172 19.523438 C 21.598082 19.512087 21.620548 19.501374 21.642578 19.490234 C 21.666428 19.478034 21.690524 19.466308 21.714844 19.455078 C 21.882429 19.378458 22.069144 19.292354 22.285156 19.208984 C 22.741666 18.956779 23.19434 18.630946 23.644531 18.349609 C 24.114791 18.57201 24.621148 18.720904 25.121094 18.730469 C 25.478659 18.737269 25.772623 18.545279 26.103516 18.472656 L 25.857422 18.572266 C 25.808412 18.591836 25.760202 18.613339 25.712891 18.636719 C 25.479469 18.752306 25.344386 19.10919 25.126953 19.328125 C 24.659424 19.051081 24.191562 18.863281 23.75 18.863281 C 23.588062 18.863289 23.426725 18.882965 23.269531 18.921875 L 22.898438 19.011719 L 22.898438 19.013672 C 22.669006 19.070502 22.46675 19.138899 22.285156 19.208984 C 22.050067 19.338863 21.813357 19.448075 21.576172 19.523438 C 20.343682 20.161659 19.281675 21.126704 18.371094 22.34375 C 18.367794 22.34825 18.364528 22.352852 18.361328 22.357422 C 18.075089 22.747101 17.836495 23.171226 17.611328 23.644531 C 17.604628 23.658131 17.598147 23.671797 17.591797 23.685547 C 17.356304 24.210263 17.178252 24.735873 17.054688 25.253906 C 17.054018 25.255906 17.053434 25.257766 17.052734 25.259766 C 17.037058 25.326391 17.021363 25.392973 17.007812 25.460938 C 18.098768 26.351025 18.882602 26.99062 18.884766 26.992188 C 18.895136 27.001687 18.906819 27.010961 18.917969 27.019531 C 18.977649 27.344129 19.114224 27.603968 19.324219 27.800781 C 19.355699 27.829751 19.388555 27.858152 19.421875 27.882812 C 19.431985 27.891112 19.444798 27.900353 19.455078 27.908203 L 19.457031 27.910156 C 19.460231 27.912556 19.463597 27.915569 19.466797 27.917969 C 19.474097 27.923969 19.480911 27.93176 19.488281 27.9375 C 20.22374 28.539136 20.958455 29.141045 21.693359 29.742188 C 22.484467 29.412116 23.176063 28.909657 23.925781 28.279297 C 23.932281 28.273497 23.938842 28.267619 23.945312 28.261719 L 23.982422 28.230469 C 24.331845 28.59931 24.716652 28.894989 25.03125 29.019531 C 25.10459 29.048681 25.179591 29.07346 25.255859 29.09375 C 26.407997 29.397662 27.632611 28.806879 28.298828 28.076172 C 28.516534 27.845427 28.68756 27.475002 28.873047 27.214844 C 29.172795 27.522864 29.371015 27.902342 29.767578 28.052734 C 30.357733 28.278239 31.103416 28.309934 31.685547 28.121094 C 32.2825 27.927445 32.709911 27.602972 33.066406 27.269531 C 33.080266 27.256701 33.093932 27.243679 33.107422 27.230469 C 33.22249 27.11663 33.31437 26.920354 33.421875 26.794922 C 33.428375 26.796922 33.434886 26.798881 33.441406 26.800781 C 34.027002 27.008151 34.683461 26.920342 35.292969 26.705078 C 34.872225 31.005801 34.309902 36.744197 34.0625 38.669922 C 33.872089 38.908901 33.708307 39.193294 33.589844 39.474609 C 34.014133 39.821822 34.438924 40.168313 34.863281 40.515625 L 34.865234 40.517578 L 34.867188 40.517578 L 34.869141 40.519531 C 34.881371 40.530791 34.895023 40.541741 34.908203 40.550781 C 34.910103 40.552581 34.912062 40.554741 34.914062 40.556641 C 34.926153 40.567761 34.938152 40.576997 34.951172 40.585938 C 34.953272 40.587938 34.954931 40.589797 34.957031 40.591797 C 35.113703 40.720958 35.272359 40.848489 35.429688 40.976562 C 35.437488 41.065242 35.446038 41.155586 35.455078 41.244141 C 35.498478 41.558607 35.60531 41.774398 35.769531 41.892578 C 35.783421 41.904868 35.79767 41.917044 35.8125 41.927734 C 35.996476 42.090781 36.547427 42.547867 37.65625 43.457031 C 38.000326 43.217771 38.280735 42.932005 38.439453 42.669922 C 38.527973 42.52442 38.597545 42.368208 38.646484 42.205078 L 38.876953 41.425781 C 38.901813 41.343791 38.921387 41.260283 38.935547 41.175781 L 39.236328 39.320312 C 39.232028 39.303323 39.227426 39.286401 39.222656 39.269531 L 39.240234 39.291016 C 39.539014 37.259756 40.8183 24.307667 40.925781 22.566406 C 40.925813 22.559906 40.925813 22.553385 40.925781 22.546875 C 40.977905 21.540705 41.018365 20.849635 41.001953 20.240234 C 39.899499 19.341285 38.605517 18.284906 37.078125 17.035156 C 36.994245 17.068593 36.913019 17.107605 36.833984 17.152344 C 36.640877 17.261388 36.459502 17.473057 36.271484 17.630859 C 36.170505 17.523435 36.115768 17.37151 36.001953 17.28125 C 35.981423 17.26522 35.960593 17.249575 35.939453 17.234375 C 35.295536 16.763261 34.60549 16.617492 33.898438 16.548828 L 34.078125 15.640625 C 34.103145 15.512588 34.115574 15.382411 34.115234 15.251953 L 34.115234 15.138672 C 34.115234 14.936355 34.100546 14.748051 34.064453 14.566406 C 32.320856 13.137343 30.340878 11.513125 28.089844 9.6640625 C 28.082544 9.6578925 28.075679 9.6524744 28.068359 9.6464844 C 28.061159 9.6401544 28.054115 9.6350602 28.046875 9.6289062 L 28.044922 9.6289062 C 28.023229 9.6090318 28.000901 9.5924869 27.978516 9.5742188 C 27.658588 9.29221 27.273771 9.1837462 26.84375 9.2285156 L 26.84375 9.2304688 C 26.082047 9.3221277 25.364758 9.9348438 24.671875 11.072266 C 23.819503 10.379439 22.98037 9.6929072 22.140625 9.0039062 C 21.565174 8.9889845 21.05579 9.1363545 20.746094 9.2890625 C 20.629673 9.3465465 20.519125 9.41523 20.416016 9.4941406 L 19.90625 9.8828125 C 19.83822 9.9352425 19.773629 9.9920013 19.712891 10.052734 C 19.420263 10.342663 19.254098 10.56607 19.035156 10.826172 C 18.993676 10.875042 18.954566 10.925882 18.917969 10.978516 L 18.810547 11.134766 C 18.781657 11.115596 18.766228 11.090396 18.736328 11.072266 L 20.515625 7.7753906 L 20.474609 7.8417969 C 20.500062 7.7955793 20.524352 7.7455483 20.546875 7.6933594 C 19.950893 7.2025703 19.349563 6.7074562 18.738281 6.203125 C 18.724351 6.19024 18.708829 6.1793188 18.693359 6.1679688 z M 18.289062 10.697266 L 18.347656 10.716797 C 18.339556 10.717392 18.331969 10.720303 18.324219 10.720703 C 18.321019 10.720604 18.31662 10.720047 18.3125 10.71875 L 18.310547 10.71875 L 18.308594 10.716797 C 18.307868 10.716364 18.303434 10.713391 18.302734 10.712891 L 18.300781 10.710938 C 18.297581 10.707237 18.292583 10.700606 18.289062 10.697266 z " />
  <path
     style="baseline-shift:baseline;display:inline;overflow:visible;vector-effect:none;fill:url(#linearGradient2);fill-rule:evenodd;stroke-linejoin:round;enable-background:accumulate;stop-color:#000000"
     d="m 28.396339,10.625878 v -0.02293 c 0,-0.412073 -0.138886,-0.732783 -0.370584,-0.984682 l -0.02285,-0.02258 C 27.678374,9.29792 27.284574,9.18361 26.84403,9.229478 c -0.764387,0.09173 -1.483036,0.709851 -2.178193,1.854709 -0.347737,0.59554 -0.625864,1.191062 -0.834358,1.809157 -0.208504,0.664343 -0.324538,1.259916 -0.324538,1.809159 v 0.04586 c -1.08931,0.870374 -1.992854,1.42008 -2.665173,1.671557 -0.370583,0.137605 -0.625863,0.183468 -0.764745,0.114664 -0.09247,-0.04586 -0.139241,-0.160533 -0.139241,-0.389142 0.04641,-0.572965 0.278125,-1.191061 0.649071,-1.900892 0.275432,-0.518823 0.601514,-1.009806 0.9736,-1.465945 0.200772,0.114289 0.447938,0.114289 0.64871,0 0.393791,-0.251898 0.602656,-0.549319 0.672279,-0.870016 0.04605,-0.252267 -0.02322,-0.457943 -0.185297,-0.664341 -0.127381,-0.177652 -0.335996,-0.280862 -0.55625,-0.2752 -0.162451,-0.02258 -0.324538,0.02294 -0.509825,0.114303 l -0.509829,0.389499 c -0.138885,0.137604 -0.324529,0.366209 -0.555879,0.641051 l -0.741541,1.076448 c -0.625861,1.007615 -0.973238,1.969323 -1.089306,2.839739 v 0.02293 c -0.02322,0.274487 0.02321,0.526742 0.139239,0.801228 0.138885,0.343632 0.370584,0.595541 0.672279,0.755717 0.450618,0.145168 0.935004,0.153036 1.390206,0.02258 0.764745,-0.206043 1.737942,-0.755718 2.8965,-1.648993 l 0.185297,0.251897 c 0.625864,0.641053 1.506295,0.664343 2.734422,0.04587 0.347738,-0.137244 0.718331,-0.389499 1.158558,-0.709853 0.764745,-0.618472 1.43662,-1.396358 1.993276,-2.31264 l 0.09282,-0.321066 c 0,-0.206041 -0.09282,-0.389497 -0.278487,-0.50345 -0.138886,-0.06844 -0.301323,-0.114663 -0.463413,-0.06844 -0.16209,0.0455 -0.278125,0.137243 -0.370944,0.274474 -0.48662,0.824518 -1.065729,1.488513 -1.737625,2.015612 -0.347737,0.251541 -0.625864,0.435007 -0.880781,0.549316 h -0.04605 c -0.32453,0.183467 -0.602657,0.274842 -0.834356,0.3207 -0.231713,0.04587 -0.393792,0 -0.48662,-0.09173 -0.04641,-0.0455 -0.06926,-0.114302 -0.115677,-0.205676 l 1.784356,-1.580243 c 1.227066,-1.144461 1.829711,-2.152475 1.829711,-3.02247 z m 8.865625,28.374275 -0.300963,1.855022 -0.231712,0.778284 c -0.138885,0.229334 -0.324529,0.366565 -0.602655,0.366565 -0.370223,0 -0.602658,-0.251899 -0.672279,-0.755718 -0.03031,-0.297058 -0.05341,-0.594795 -0.06926,-0.892948 v -0.02293 c 0,-0.183107 0.04605,-0.320696 0.162089,-0.435007 0.116031,-0.114663 0.254909,-0.160176 0.416999,-0.183466 0.324541,-2.129594 1.713687,-16.190757 1.78367,-17.358833 l 0.06926,-1.740409 c -0.278487,0.412073 -0.741539,1.122313 -1.367371,2.106923 -0.555881,0.916239 -0.996448,1.534378 -1.320955,1.855024 -0.347737,0.366209 -0.695486,0.457942 -1.019294,0.343276 -0.185659,-0.06844 -0.324901,-0.18311 -0.416998,-0.366208 -0.06997,-0.183111 -0.116031,-0.43501 -0.116031,-0.732429 0,-0.412432 0.138886,-1.374213 0.370222,-2.862723 l 0.139609,-0.801229 c 0.02322,-0.183465 0,-0.320709 -0.06997,-0.366563 -0.347014,-0.251544 -1.250642,-0.183111 -2.757257,0.229331 l -0.02322,0.206044 c -0.231712,1.648991 -0.347737,2.90817 -0.347737,3.824453 0,0.343631 0.02322,0.64105 0.04678,0.847081 0.23171,-0.251898 0.509103,-0.66434 0.834367,-1.213626 0.06925,-0.137604 0.208133,-0.229332 0.347014,-0.2752 0.157216,-0.04685 0.32741,-0.02161 0.463774,0.0688 0.138886,0.09137 0.231712,0.206041 0.277755,0.366208 0.04678,0.137245 0,0.297408 -0.06926,0.435364 -0.416997,0.732417 -0.787582,1.236194 -1.088565,1.533959 -0.440566,0.412075 -0.834357,0.549318 -1.22887,0.389141 -0.254918,-0.09137 -0.440566,-0.274843 -0.57945,-0.572608 -0.138886,-0.366208 -0.208131,-0.89295 -0.208131,-1.62569 0,-0.709852 0.06925,-1.648994 0.208131,-2.81686 -0.463051,1.099329 -1.019292,2.198659 -1.621959,3.343538 -0.602657,1.076448 -1.065729,1.809157 -1.437043,2.198657 -0.347738,0.389141 -0.717972,0.52674 -1.06573,0.435008 -0.231713,-0.09173 -0.417,-0.229334 -0.509827,-0.480876 -0.09282,-0.229332 -0.138886,-0.549674 -0.138886,-0.938816 0,-0.321066 0.02248,-0.709851 0.06925,-1.191062 l -2.548765,2.198658 c -1.553027,1.305779 -2.642333,1.671558 -3.314229,1.053147 -0.440207,-0.412075 -0.556244,-1.099014 -0.324542,-2.083729 0.09282,-0.38914 0.232072,-0.801582 0.416998,-1.213627 0.185297,-0.389499 0.370945,-0.70985 0.556241,-0.962108 0.787952,-1.053145 1.621961,-1.786276 2.572343,-2.267087 0.300962,-0.137606 0.555882,-0.251908 0.833635,-0.320708 l 0.370946,-0.09173 c 0.162087,0 0.324539,0.04586 0.440564,0.137605 0.115309,0.114317 0.185659,0.251909 0.208133,0.412074 v 0.04587 c 0,0.160166 -0.04605,0.274833 -0.16209,0.389141 -0.09003,0.115442 -0.223649,0.189807 -0.370222,0.206043 l -0.278486,0.0688 c -0.231383,0.05176 -0.451237,0.144914 -0.648709,0.274842 -0.717972,0.389499 -1.390631,1.007616 -1.992852,1.831726 -0.254919,0.366207 -0.463413,0.801582 -0.649071,1.30536 -0.138886,0.435365 -0.208505,0.801583 -0.208505,1.122314 0,0.114302 0.02285,0.206043 0.04641,0.251898 0.347376,-0.02257 0.903617,-0.366208 1.714789,-1.053145 l 1.205292,-1.053464 1.691207,-1.442224 c 0.185021,-0.152355 0.387247,-0.283058 0.602649,-0.389503 0.254919,-0.114304 0.486621,-0.114304 0.71797,0 0.254918,0.137603 0.394524,0.412074 0.394524,0.824506 l -0.02322,0.435008 -0.02321,0.09173 -0.116032,1.168181 c 0.278487,-0.366209 0.556604,-0.893319 0.904352,-1.534379 0.532084,-1.027193 1.041913,-2.065498 1.529131,-3.114204 -0.625502,0.251899 -1.158559,0.457941 -1.621961,0.66434 l -0.463772,0.02258 c -0.162091,-0.04587 -0.25492,-0.160176 -0.324542,-0.297765 -0.06926,-0.137244 -0.06926,-0.297408 -0.02322,-0.45794 0.04678,-0.160168 0.162811,-0.274476 0.301695,-0.343276 l 0.856841,-0.343635 c 0.649432,-0.274842 1.298122,-0.526742 1.923602,-0.732783 0.440566,-1.053147 0.834369,-2.083729 1.182138,-3.13719 l 0.278487,-0.892951 0.09282,-0.343629 c 0.04604,-0.160177 0.138886,-0.274843 0.277755,-0.343633 0.127664,-0.09033 0.291017,-0.115704 0.440566,-0.06844 0.138887,0.02258 0.254909,0.09173 0.347739,0.206042 0.06926,0.09173 0.115308,0.228975 0.115308,0.366208 v 0.114303 l -0.208132,1.053148 c -0.16209,0.847449 -0.300962,1.648989 -0.440568,2.427359 1.599126,-0.36621 2.665173,-0.343634 3.291079,0.114302 0.347015,0.275199 0.532673,0.664339 0.532673,1.145193 l -0.162086,1.144461 -0.277753,1.855023 0.578725,-0.892948 c 0.927186,-1.465526 1.529875,-2.358508 1.807938,-2.702138 0.208132,-0.25191 0.416996,-0.412075 0.579448,-0.503809 l 0.555882,-0.02258 c 0.162088,0.06846 0.300962,0.160177 0.39379,0.297766 0.116031,0.137244 0.185659,0.366207 0.208866,0.64105 0.04605,0.412075 0.02322,1.28248 -0.04678,2.633707 -0.06925,1.121894 -1.458462,15.136788 -1.667327,16.556762 z m -10.093434,-28.55732 0.04605,0.183466 c 0,0.206041 -0.09247,0.480875 -0.278126,0.778651 -0.254908,0.412074 -0.64907,0.870384 -1.181712,1.373793 l -0.880773,0.801583 c 0.185297,-0.641407 0.463413,-1.259914 0.811162,-1.87801 0.48662,-0.778651 0.90399,-1.236191 1.274541,-1.282058 z m -10.196542,2.541658 -0.231711,0.687275 -0.463412,1.533956 c -0.278487,1.007619 -0.440206,1.763294 -0.486982,2.312957 -0.04605,0.389143 0,0.709495 0.09283,0.916241 0.04642,0.183108 0.16209,0.297409 0.301323,0.343276 0.16209,0.0688 0.301323,0.0688 0.463413,0 0.138882,-0.04587 0.254918,-0.160178 0.32454,-0.343276 0.06964,-0.136966 0.06964,-0.298402 0,-0.435364 -0.04606,-0.206044 0.02322,-0.778652 0.254908,-1.694545 0.241981,-0.991481 0.535971,-1.969853 0.880782,-2.931157 0.04642,-0.160177 0.04642,-0.321066 -0.02322,-0.457944 -0.06962,-0.137603 -0.185297,-0.251897 -0.347376,-0.297764 -0.13924,-0.04586 -0.301323,-0.02258 -0.440204,0.02258 -0.162453,0.06917 -0.255282,0.183466 -0.324903,0.343632 z m 1.552711,-6.938656 c 0.138886,0.0688 0.231712,0.183468 0.278116,0.343632 0.06963,0.160177 0.04641,0.297767 -0.04642,0.435008 l -3.128252,5.793777 -3.615237,6.526591 c -0.151269,0.242063 -0.321746,0.471873 -0.509824,0.687274 -0.32453,0.251542 -0.602656,0.365851 -0.903978,0.297409 -0.200909,-0.0484 -0.375202,-0.17148 -0.48662,-0.343633 -0.102903,-0.175399 -0.1661189,-0.37075 -0.1852973,-0.572607 L 9.0000006,14.70199 v -0.137244 c 0,-0.137604 0.046413,-0.251909 0.1392441,-0.366209 0.069258,-0.114663 0.1852971,-0.183465 0.3245407,-0.206041 0.1852971,-0.02293 0.3245301,0 0.4634126,0.09137 0.138883,0.09209 0.231712,0.206043 0.254908,0.366208 l 0.81116,3.984931 c 0.416998,-0.664341 1.645538,-2.862723 3.708066,-6.641205 l 3.01259,-5.518575 c 0.06962,-0.137604 0.208504,-0.229334 0.347737,-0.275201 z"
     id="path2" />
  <path
     id="path3-9"
     style="baseline-shift:baseline;display:inline;overflow:visible;vector-effect:none;fill-rule:evenodd;stroke:none;stroke-linejoin:round;enable-background:accumulate;stop-color:#000000;fill:#000000;opacity:0.2"
     d="M 20.726562 6.0429688 C 20.679313 6.346818 20.592196 6.6282812 20.474609 6.8417969 L 20.515625 6.7753906 L 18.736328 10.072266 C 18.766228 10.090396 18.781657 10.115596 18.810547 10.134766 L 18.917969 9.9785156 C 18.954566 9.9258816 18.993676 9.8750419 19.035156 9.8261719 C 19.254098 9.5660699 19.420263 9.3426634 19.712891 9.0527344 C 19.773629 8.9920013 19.83822 8.9352425 19.90625 8.8828125 L 19.925781 8.8671875 L 20.515625 7.7753906 L 20.474609 7.8417969 C 20.71919 7.3976826 20.83291 6.6566042 20.726562 6.0429688 z M 18.289062 9.6972656 C 18.292583 9.7006056 18.297581 9.7072375 18.300781 9.7109375 L 18.302734 9.7128906 C 18.303434 9.7133906 18.307868 9.7163639 18.308594 9.7167969 L 18.310547 9.71875 L 18.3125 9.71875 C 18.31662 9.720047 18.321019 9.7206041 18.324219 9.7207031 C 18.331969 9.7203031 18.339556 9.7173919 18.347656 9.7167969 L 18.289062 9.6972656 z M 7.0488281 14.146484 C 7.0173571 14.285 7 14.42587 7 14.564453 L 7 14.701172 C 6.9999116 14.836981 7.0136456 14.972445 7.0410156 15.105469 L 7.9453125 19.505859 C 7.9410125 19.471559 7.9388469 19.436809 7.9355469 19.402344 L 7.96875 19.615234 L 7.9472656 19.515625 C 8.0056556 19.968382 8.1558978 20.405389 8.3867188 20.798828 C 8.4017987 20.823908 8.4174337 20.848657 8.4335938 20.873047 C 8.8256837 21.478866 9.4354488 21.906691 10.130859 22.074219 C 10.139259 22.076219 10.14778 22.078178 10.15625 22.080078 C 11.18584 22.313938 12.198562 21.822874 12.728516 21.412109 C 12.830537 21.333479 12.924724 21.245177 13.009766 21.148438 C 13.267562 20.853189 13.501317 20.53739 13.708984 20.205078 C 13.727374 20.174948 13.744949 20.144341 13.761719 20.113281 L 14.181641 19.355469 C 14.457515 19.908884 14.900386 20.397697 15.470703 20.619141 C 16.001568 20.819563 16.838357 20.820805 17.367188 20.619141 C 17.970705 20.384481 18.408926 19.906153 18.673828 19.404297 C 18.757108 19.446737 18.843253 19.483277 18.931641 19.513672 C 19.236992 19.612042 19.55111 19.676125 19.867188 19.705078 C 20.396702 19.237172 20.965186 18.839825 21.576172 18.523438 C 21.541526 18.534447 21.507346 18.545188 21.472656 18.554688 C 20.639695 18.790524 19.75591 18.779213 18.931641 18.513672 C 18.843253 18.483277 18.757108 18.446737 18.673828 18.404297 C 18.408926 18.906153 17.970705 19.384481 17.367188 19.619141 C 16.838358 19.820805 16.001568 19.819563 15.470703 19.619141 C 14.900386 19.397697 14.457515 18.908884 14.181641 18.355469 L 13.761719 19.113281 C 13.744949 19.144341 13.727374 19.174948 13.708984 19.205078 C 13.501317 19.53739 13.267562 19.853189 13.009766 20.148438 C 12.924724 20.245177 12.830537 20.333479 12.728516 20.412109 C 12.198562 20.822874 11.18584 21.313938 10.15625 21.080078 C 10.14778 21.078178 10.139259 21.076219 10.130859 21.074219 C 9.4354488 20.906691 8.8256837 20.478866 8.4335938 19.873047 C 8.4174338 19.848657 8.4017987 19.823908 8.3867188 19.798828 C 8.1558977 19.405389 8.0056556 18.968382 7.9472656 18.515625 L 7.96875 18.615234 L 7.9355469 18.402344 C 7.9388469 18.436809 7.9410125 18.471559 7.9453125 18.505859 L 7.0488281 14.146484 z M 21.576172 18.523438 C 21.813357 18.448074 22.050067 18.338863 22.285156 18.208984 C 22.069144 18.292354 21.882429 18.378458 21.714844 18.455078 C 21.690524 18.466308 21.666428 18.478034 21.642578 18.490234 C 21.620548 18.501374 21.598082 18.512087 21.576172 18.523438 z M 22.285156 18.208984 C 22.46675 18.138899 22.669006 18.070502 22.898438 18.013672 L 22.898438 18.011719 L 23.269531 17.921875 C 23.426725 17.882965 23.588062 17.863289 23.75 17.863281 C 24.191562 17.863281 24.659424 18.051081 25.126953 18.328125 C 25.344386 18.10919 25.479469 17.752306 25.712891 17.636719 C 25.760202 17.613339 25.808412 17.591836 25.857422 17.572266 L 26.103516 17.472656 C 25.772623 17.545279 25.478659 17.737269 25.121094 17.730469 C 24.621148 17.720904 24.114791 17.57201 23.644531 17.349609 C 23.19434 17.630946 22.741666 17.956779 22.285156 18.208984 z M 34.078125 14.642578 L 33.898438 15.548828 C 33.962664 15.555065 34.02592 15.562617 34.089844 15.570312 C 34.106463 15.465278 34.115512 15.35837 34.115234 15.251953 L 34.115234 15.138672 C 34.115234 14.964511 34.104289 14.800734 34.078125 14.642578 z M 40.996094 20.066406 C 40.982262 20.483795 40.956061 20.96237 40.925781 21.546875 C 40.925813 21.553385 40.925813 21.559906 40.925781 21.566406 C 40.8183 23.307667 39.539014 36.259756 39.240234 38.291016 L 39.222656 38.269531 C 39.227426 38.286401 39.232028 38.303323 39.236328 38.320312 L 38.935547 40.175781 C 38.921387 40.260283 38.901813 40.343791 38.876953 40.425781 L 38.646484 41.205078 C 38.597545 41.368208 38.527973 41.52442 38.439453 41.669922 C 38.074624 42.272347 37.062963 43 36.126953 43 C 35.488243 43 34.671091 42.682904 34.189453 42.146484 C 33.707815 41.610065 33.542596 41.023676 33.472656 40.517578 C 33.469656 40.494188 33.467044 40.470746 33.464844 40.447266 C 33.4494 40.295899 33.435755 40.143965 33.423828 39.992188 C 33.398353 40.112351 33.384766 40.22607 33.384766 40.328125 L 33.384766 40.351562 C 33.385138 40.386742 33.386472 40.421912 33.388672 40.457031 C 33.406242 40.787568 33.431254 41.118039 33.464844 41.447266 C 33.467044 41.470746 33.469656 41.494188 33.472656 41.517578 C 33.542596 42.023676 33.707815 42.610065 34.189453 43.146484 C 34.671091 43.682904 35.488243 44 36.126953 44 C 37.062963 44 38.074624 43.272347 38.439453 42.669922 C 38.527973 42.52442 38.597545 42.368208 38.646484 42.205078 L 38.876953 41.425781 C 38.901813 41.343791 38.921387 41.260283 38.935547 41.175781 L 39.236328 39.320312 C 39.232028 39.303323 39.227426 39.286401 39.222656 39.269531 L 39.240234 39.291016 C 39.539014 37.259756 40.8183 24.307667 40.925781 22.566406 C 40.925813 22.559906 40.925813 22.553385 40.925781 22.546875 C 40.982921 21.443873 41.026779 20.719761 40.996094 20.066406 z M 35.292969 25.705078 C 34.683461 25.920342 34.027002 26.008151 33.441406 25.800781 C 33.434886 25.798881 33.428375 25.796922 33.421875 25.794922 C 33.31437 25.920354 33.22249 26.11663 33.107422 26.230469 C 33.093932 26.243679 33.080266 26.256701 33.066406 26.269531 C 32.709911 26.602972 32.2825 26.927445 31.685547 27.121094 C 31.103416 27.309934 30.357733 27.278239 29.767578 27.052734 C 29.371015 26.902342 29.172795 26.522864 28.873047 26.214844 C 28.68756 26.475002 28.516534 26.845427 28.298828 27.076172 C 27.632611 27.806879 26.407997 28.397662 25.255859 28.09375 C 25.179591 28.07346 25.10459 28.048681 25.03125 28.019531 C 24.716652 27.894989 24.331845 27.59931 23.982422 27.230469 L 23.945312 27.261719 C 23.938842 27.267619 23.932281 27.273497 23.925781 27.279297 C 23.043379 28.021217 22.242366 28.585032 21.263672 28.900391 C 20.284978 29.21575 18.847486 29.080427 17.970703 28.273438 C 17.966133 28.269517 17.961531 28.265619 17.957031 28.261719 C 17.31201 27.657918 17.005748 26.866402 16.921875 26.048828 C 16.812973 27.190028 17.049427 28.412116 17.957031 29.261719 C 17.961531 29.265619 17.966133 29.269517 17.970703 29.273438 C 18.847486 30.080427 20.284978 30.21575 21.263672 29.900391 C 22.242366 29.585032 23.043379 29.021217 23.925781 28.279297 C 23.932281 28.273497 23.938842 28.267619 23.945312 28.261719 L 23.982422 28.230469 C 24.331845 28.59931 24.716652 28.894989 25.03125 29.019531 C 25.10459 29.048681 25.179591 29.07346 25.255859 29.09375 C 26.407997 29.397662 27.632611 28.806879 28.298828 28.076172 C 28.516534 27.845427 28.68756 27.475002 28.873047 27.214844 C 29.172795 27.522864 29.371015 27.902342 29.767578 28.052734 C 30.357733 28.278239 31.103416 28.309934 31.685547 28.121094 C 32.2825 27.927445 32.709911 27.602972 33.066406 27.269531 C 33.080266 27.256701 33.093932 27.243679 33.107422 27.230469 C 33.22249 27.11663 33.31437 26.920354 33.421875 26.794922 C 33.428375 26.796922 33.434886 26.798881 33.441406 26.800781 C 33.994709 26.996716 34.610956 26.929863 35.191406 26.740234 C 35.225876 26.38829 35.260016 26.041907 35.292969 25.705078 z " />
</svg>
