<?xml version="1.0" encoding="UTF-8" standalone="no"?>
<svg
   width="48"
   height="48"
   version="1.1"
   id="svg9"
   sodipodi:docname="modrinth-app.svg"
   inkscape:version="1.4.4 (dcaf3e7d9e, 2026-05-05)"
   xmlns:inkscape="http://www.inkscape.org/namespaces/inkscape"
   xmlns:sodipodi="http://sodipodi.sourceforge.net/DTD/sodipodi-0.dtd"
   xmlns:xlink="http://www.w3.org/1999/xlink"
   xmlns="http://www.w3.org/2000/svg"
   xmlns:svg="http://www.w3.org/2000/svg">
  <sodipodi:namedview
     id="namedview9"
     pagecolor="#ffffff"
     bordercolor="#000000"
     borderopacity="0.25"
     inkscape:showpageshadow="2"
     inkscape:pageopacity="0.0"
     inkscape:pagecheckerboard="0"
     inkscape:deskcolor="#d1d1d1"
     inkscape:zoom="12.0625"
     inkscape:cx="23.958549"
     inkscape:cy="24"
     inkscape:window-width="1440"
     inkscape:window-height="831"
     inkscape:window-x="0"
     inkscape:window-y="0"
     inkscape:window-maximized="1"
     inkscape:current-layer="svg9" />
  <defs
     id="defs6">
    <linearGradient
       id="linearGradient9"
       inkscape:collect="always">
      <stop
         style="stop-color:#2a2c2f;stop-opacity:1;"
         offset="0"
         id="stop9" />
      <stop
         style="stop-color:#424649;stop-opacity:1;"
         offset="1"
         id="stop10" />
    </linearGradient>
    <linearGradient
       id="linearGradient4184">
      <stop
         style="stop-color:#000000;stop-opacity:1;"
         offset="0"
         id="stop1" />
      <stop
         style="stop-color:#000000;stop-opacity:0;"
         offset="1"
         id="stop2" />
    </linearGradient>
    <linearGradient
       id="linearGradient4168">
      <stop
         style="stop-color:#fcfcfc;stop-opacity:1;"
         offset="0"
         id="stop3" />
      <stop
         style="stop-color:#f58273;stop-opacity:1"
         offset="1"
         id="stop4" />
    </linearGradient>
    <linearGradient
       xlink:href="#linearGradient4168"
       id="linearGradient4166"
       x1="32.249001"
       y1="42.036999"
       x2="16.546"
       y2="4.902"
       gradientUnits="userSpaceOnUse" />
    <linearGradient
       xlink:href="#linearGradient4168"
       id="linearGradient4174"
       x1="15.316"
       y1="13.523"
       x2="29.427"
       y2="37.964"
       gradientUnits="userSpaceOnUse" />
    <linearGradient
       xlink:href="#linearGradient4184"
       id="linearGradient4190"
       x1="12.237"
       y1="25.116"
       x2="17.74"
       y2="28.293"
       gradientUnits="userSpaceOnUse" />
    <linearGradient
       xlink:href="#linearGradient4184"
       id="linearGradient4192"
       x1="16.187136"
       y1="12.362947"
       x2="35.876"
       y2="33.065"
       gradientUnits="userSpaceOnUse" />
    <linearGradient
       inkscape:collect="always"
       xlink:href="#linearGradient9"
       id="linearGradient10"
       x1="44"
       y1="44"
       x2="24"
       y2="4"
       gradientUnits="userSpaceOnUse" />
  </defs>
  <circle
     style="fill:url(#linearGradient10)"
     id="path9"
     cx="24"
     cy="24"
     r="20" />
  <path
     id="path7"
     style="opacity:0.2;fill:url(#linearGradient4192);fill-opacity:1;stroke:none;stroke-width:1;stroke-linecap:butt;stroke-linejoin:bevel;stroke-miterlimit:4;stroke-dasharray:none;stroke-opacity:1"
     d="M 24.542969 10.011719 L 12.162109 16.476562 L 10.037109 22.548828 L 12.367188 25.009766 L 11.724609 27.994141 L 15.710938 35.300781 L 27.005859 43.773438 L 27.007812 43.773438 A 20 20 0 0 0 43.998047 24.246094 L 33.263672 13.511719 L 24.542969 10.011719 z " />
  <path
     d="m 24.54265,10.010998 c -1.37766,-0.0548 -2.786802,0.0942 -4.188622,0.46924 -5.770645,1.54438 -9.731168,6.46908 -10.316328,12.06908 h 2.368022 c 0.56328,-4.54672 3.814462,-8.51704 8.518146,-9.77594 5.813304,-1.55586 11.77863,1.58374 13.85895,7.09134 l -2.304582,0.6163 c -1.06038,-2.56212 -3.196962,-4.44064 -5.727344,-5.24072 l -0.4233,2.3975 c 1.997742,0.73664 3.618142,2.3975 4.210944,4.60744 0.86408,3.22056 -0.744842,6.5204 -3.664064,7.88922 l 0.630502,2.35104 c 3.836882,-1.58322 6.141964,-5.57046 5.596724,-9.68078 l 2.295822,-0.61418 c 0.24096,1.53268 0.1692,3.09834 -0.211062,4.60252 l 2.330202,0.84714 c 0.622902,-2.30182 0.664962,-4.79342 0.002,-7.26258 -1.6276,-6.06652 -7.006224,-10.12932 -12.97615,-10.36662 z m -0.1636,4.80986 c -0.91328,-0.0388 -1.84838,0.058 -2.778062,0.30676 -4.906582,1.31304 -7.818145,6.34982 -6.503464,11.24984 0.1192,0.44462 0.26906,0.87222 0.4468,1.28238 l -2.110501,1.26604 c -0.292021,-0.61906 -0.533161,-1.27264 -0.716921,-1.95678 -0.1756,-0.65298 -0.29094,-1.30804 -0.35056,-1.95936 H 10 c 0.0654,0.88298 0.21384,1.75784 0.44348,2.61294 2.003762,7.4665 9.688528,11.89786 17.165434,9.8974 4.168842,-1.11564 7.392684,-3.99548 9.081986,-7.62018 l -2.331902,-0.84766 c -1.42298,2.9083 -4.050762,5.20952 -7.427166,6.11296 -4.690562,1.25508 -9.480606,-0.54636 -12.248348,-4.18254 l 2.100562,-1.25996 c 1.9715,2.4708 5.144922,3.81556 8.393926,3.38572 l -0.630502,-2.35104 c -2.17712,0.1844 -4.277142,-0.69898 -5.673864,-2.28928 l 2.724562,-1.63456 1.562982,1.74018 3.485262,-1.10368 2.079742,-2.55002 -0.6005,-1.35086 -2.015742,0.6382 -0.92318,1.01398 -1.297122,0.3451 c -0.0016,-5.4e-4 -0.91986,-0.97626 -0.91986,-0.97626 l -0.45342,-1.26156 0.9253,-0.95104 1.295102,-0.40738 1.48468,-1.50392 -0.93236,-1.1479 -3.221122,0.69396 -2.548422,2.61784 0.81316,2.15642 -2.698822,1.61928 c -0.0798,-0.2111 -0.1498,-0.42824 -0.21,-0.6508 -0.970142,-3.61706 1.17904,-7.33416 4.800464,-8.30378 0.57858,-0.1548 1.15938,-0.22968 1.73142,-0.23242 z"
     style="fill:#1bd96a;fill-opacity:1;stroke-width:0.0546876"
     id="path2" />
  <path
     style="fill:#2c2e31;fill-opacity:0.235294"
     d="m 4.01168,23.49995 c -0.004,0.16654 -0.0117,0.33244 -0.0117,0.5 0,11.08 8.92,20 20,20 11.08,0 20,-8.92 20,-20 0,-0.16756 -0.008,-0.33346 -0.0117,-0.5 -0.26467,10.84613 -9.07616,19.5 -19.98828,19.5 -10.91212,0 -19.72361,-8.65387 -19.98828,-19.5 z"
     id="path6" />
</svg>
