<?xml version="1.0" encoding="UTF-8" standalone="no"?>
<svg
   width="48"
   version="1.1"
   height="48"
   viewBox="0 0 48 48"
   id="svg30"
   sodipodi:docname="quick-share.svg"
   inkscape:version="1.4.4 (dcaf3e7d9e, 2026-05-05)"
   xmlns:inkscape="http://www.inkscape.org/namespaces/inkscape"
   xmlns:sodipodi="http://sodipodi.sourceforge.net/DTD/sodipodi-0.dtd"
   xmlns:xlink="http://www.w3.org/1999/xlink"
   xmlns="http://www.w3.org/2000/svg"
   xmlns:svg="http://www.w3.org/2000/svg"
   xmlns:rdf="http://www.w3.org/1999/02/22-rdf-syntax-ns#"
   xmlns:cc="http://creativecommons.org/ns#"
   xmlns:dc="http://purl.org/dc/elements/1.1/">
  <metadata
     id="metadata34">
    <rdf:RDF>
      <cc:Work
         rdf:about="">
        <dc:format>image/svg+xml</dc:format>
        <dc:type
           rdf:resource="http://purl.org/dc/dcmitype/StillImage" />
      </cc:Work>
    </rdf:RDF>
  </metadata>
  <sodipodi:namedview
     pagecolor="#ffffff"
     bordercolor="#666666"
     borderopacity="1"
     objecttolerance="10"
     gridtolerance="10"
     guidetolerance="10"
     inkscape:pageopacity="0"
     inkscape:pageshadow="2"
     inkscape:window-width="1920"
     inkscape:window-height="1012"
     id="namedview32"
     showgrid="false"
     inkscape:zoom="16.75"
     inkscape:cx="23.970149"
     inkscape:cy="24"
     inkscape:window-x="0"
     inkscape:window-y="0"
     inkscape:window-maximized="1"
     inkscape:current-layer="svg30"
     inkscape:pagecheckerboard="0"
     inkscape:showpageshadow="2"
     inkscape:deskcolor="#d1d1d1" />
  <defs
     id="defs20">
    <linearGradient
       id="linearGradient6">
      <stop
         style="stop-color:#3c59ed;stop-opacity:1;"
         offset="0"
         id="stop5" />
      <stop
         style="stop-color:#81baf4;stop-opacity:1;"
         offset="1"
         id="stop6" />
    </linearGradient>
    <linearGradient
       id="linearGradient1"
       inkscape:collect="always">
      <stop
         style="stop-color:#f2f2f2;stop-opacity:1;"
         offset="0"
         id="stop1" />
      <stop
         style="stop-color:#8ebcef;stop-opacity:1;"
         offset="1"
         id="stop3" />
    </linearGradient>
    <linearGradient
       id="linearGradient4533">
      <stop
         style="stop-color:#000000;stop-opacity:1"
         offset="0"
         id="stop2" />
      <stop
         style="stop-color:#000000;stop-opacity:0"
         offset="1"
         id="stop4" />
    </linearGradient>
    <linearGradient
       xlink:href="#linearGradient4507"
       id="linearGradient4509"
       x1="36.853"
       y1="37.567"
       x2="27.831"
       y2="3.893"
       gradientUnits="userSpaceOnUse"
       gradientTransform="translate(-15.543305,5.327629)" />
    <linearGradient
       xlink:href="#linearGradient4533"
       id="linearGradient4535"
       x1="18.519"
       y1="15.562"
       x2="35.158"
       y2="32.202"
       gradientUnits="userSpaceOnUse"
       gradientTransform="translate(-35.206691,-10.474111)" />
    <linearGradient
       inkscape:collect="always"
       xlink:href="#linearGradient6"
       id="linearGradient3192"
       x1="34.250381"
       y1="45.622643"
       x2="10.228386"
       y2="2.8234024"
       gradientUnits="userSpaceOnUse" />
    <linearGradient
       inkscape:collect="always"
       xlink:href="#linearGradient4533"
       id="linearGradient1553"
       x1="11.3695"
       y1="11.725784"
       x2="30.080458"
       y2="30.796055"
       gradientUnits="userSpaceOnUse"
       gradientTransform="translate(3.1837001,3.5702075)" />
    <linearGradient
       inkscape:collect="always"
       xlink:href="#linearGradient1"
       id="linearGradient3"
       x1="23.855469"
       y1="10"
       x2="37.710938"
       y2="38"
       gradientUnits="userSpaceOnUse" />
  </defs>
  <circle
     style="fill:url(#linearGradient3192);stroke-width:1.92876;fill-opacity:1"
     id="path1121"
     cx="24"
     cy="24"
     r="20" />
  <path
     id="path1121-6"
     style="fill:#000000;stroke-width:1.92876;opacity:0.3;fill-opacity:1"
     d="M 44.000002,23.25 A 20,20 0 0 1 24.01758,43 20,20 0 0 1 4.0527362,23.5 20,20 0 0 0 4.0175802,24 20,20 0 0 0 24.01758,44 a 20,20 0 0 0 20,-20 A 20,20 0 0 0 44,23.25 Z" />
  <path
     id="path1247"
     style="opacity:0.2;fill:url(#linearGradient1553);fill-opacity:1"
     d="M 24.722656 10.027344 L 16.828125 12.962891 L 10 22 L 14 26 L 10 26 L 14.324219 34.253906 L 24.070312 44 A 20 20 0 0 0 43.996094 24.355469 L 33.398438 13.757812 L 24.722656 10.027344 z " />
  <path
     id="path5"
     style="fill:url(#linearGradient3);fill-opacity:1"
     d="M 23.855469,10 C 16.896431,10.000466 10.994148,15.112338 10,22 H 21.027344 L 17.785157,25.242188 19.199219,26.65625 24.855469,21 19.199219,15.34375 17.785157,16.757812 21.027344,20 h -8.486328 c 1.695223,-4.794815 6.228784,-8.000316 11.314453,-8 5.85559,6.3e-5 10.856099,4.226311 11.832031,10 h 2.023438 C 36.71679,15.112338 30.814507,10.000466 23.855469,10 Z M 28.511719,21.34375 22.855469,27 28.511719,32.65625 29.925781,31.242188 26.683594,28 h 8.486328 c -1.695223,4.794815 -6.228784,8.000316 -11.314453,8 -5.85559,-6.3e-5 -10.8561,-4.226311 -11.832031,-10 H 10 c 0.994148,6.887662 6.896431,11.999534 13.855469,12 6.959038,-4.66e-4 12.861321,-5.112338 13.855469,-12 H 26.683594 l 3.242187,-3.242188 z" />
</svg>
