<?xml version="1.0" encoding="UTF-8" standalone="no"?>
<!-- Created with Inkscape (http://www.inkscape.org/) -->

<svg
   width="48"
   height="48"
   viewBox="0 0 48 48"
   version="1.1"
   id="svg5"
   inkscape:version="1.4.4 (dcaf3e7d9e, 2026-05-05)"
   sodipodi:docname="the-sims-2.svg"
   xmlns:inkscape="http://www.inkscape.org/namespaces/inkscape"
   xmlns:sodipodi="http://sodipodi.sourceforge.net/DTD/sodipodi-0.dtd"
   xmlns:xlink="http://www.w3.org/1999/xlink"
   xmlns="http://www.w3.org/2000/svg"
   xmlns:svg="http://www.w3.org/2000/svg">
  <sodipodi:namedview
     id="namedview7"
     pagecolor="#ffffff"
     bordercolor="#666666"
     borderopacity="1.0"
     inkscape:pageshadow="2"
     inkscape:pageopacity="0.0"
     inkscape:pagecheckerboard="0"
     inkscape:document-units="px"
     showgrid="false"
     units="px"
     inkscape:zoom="11.979167"
     inkscape:cx="24"
     inkscape:cy="24"
     inkscape:window-width="1440"
     inkscape:window-height="826"
     inkscape:window-x="0"
     inkscape:window-y="0"
     inkscape:window-maximized="1"
     inkscape:current-layer="svg5"
     inkscape:showpageshadow="2"
     inkscape:deskcolor="#d1d1d1" />
  <defs
     id="defs2">
    <linearGradient
       inkscape:collect="always"
       id="linearGradient3">
      <stop
         style="stop-color:#2e468d;stop-opacity:1;"
         offset="0"
         id="stop1" />
      <stop
         style="stop-color:#45559a;stop-opacity:1;"
         offset="1"
         id="stop2" />
    </linearGradient>
    <linearGradient
       id="linearGradient1010"
       inkscape:collect="always">
      <stop
         style="stop-color:#333333;stop-opacity:1;"
         offset="0"
         id="stop1010" />
      <stop
         style="stop-color:#333333;stop-opacity:0;"
         offset="1"
         id="stop1011" />
    </linearGradient>
    <linearGradient
       inkscape:collect="always"
       xlink:href="#linearGradient3"
       id="linearGradient2"
       x1="8"
       y1="16"
       x2="8"
       y2="0"
       gradientUnits="userSpaceOnUse"
       gradientTransform="matrix(2.5,0,0,2.5,4,4)" />
    <linearGradient
       inkscape:collect="always"
       id="linearGradient1451">
      <stop
         style="stop-color:#56b512;stop-opacity:1;"
         offset="0"
         id="stop1447" />
      <stop
         style="stop-color:#84cd5a;stop-opacity:1;"
         offset="1"
         id="stop1449" />
    </linearGradient>
    <linearGradient
       inkscape:collect="always"
       xlink:href="#linearGradient1451"
       id="linearGradient4"
       x1="11"
       y1="14"
       x2="8"
       y2="2"
       gradientUnits="userSpaceOnUse"
       gradientTransform="matrix(2.3333332,0,0,2.3333332,5.3333335,5.3333335)" />
    <linearGradient
       inkscape:collect="always"
       xlink:href="#linearGradient1010"
       id="linearGradient1011"
       x1="17"
       y1="14.673367"
       x2="39.465141"
       y2="35.70509"
       gradientUnits="userSpaceOnUse" />
  </defs>
  <circle
     style="fill:url(#linearGradient2);stroke-width:2.5"
     id="path1"
     cx="24"
     cy="24"
     r="20" />
  <path
     id="rect1010"
     style="opacity:0.2;fill:url(#linearGradient1011)"
     d="M 24 10 L 24 38 L 29.289062 43.289062 A 20 20 0 0 0 43.289062 29.289062 L 24 10 z " />
  <path
     d="M 4.0117,23.5 C 4.0076,23.667 4,23.832 4,24 4,35.08 12.92,44 24,44 35.08,44 44,35.08 44,24 44,23.832 43.992,23.667 43.988,23.5 43.724,34.346 34.912,43 24,43 13.088,43 4.276,34.346 4.012,23.5 Z"
     style="opacity:0.2;fill:#000000"
     id="path2" />
  <path
     d="m 24,10 -7,14 7,14 7,-14 z"
     style="fill:url(#linearGradient4);stroke-width:2.33334"
     id="path3" />
  <path
     id="path4"
     style="fill:#a7e077;stroke-width:2.33334"
     d="M 24 10 L 21 24 L 27 24 L 24 10 z " />
  <path
     id="path5"
     style="opacity:0.4;fill:#008000;stroke-width:2.33334"
     d="M 17 24 L 24 38 L 21 24 L 17 24 z M 24 38 L 31 24 L 27 24 L 24 38 z " />
</svg>
