<?xml version="1.0" encoding="UTF-8" standalone="no"?>
<svg
   viewBox="0 0 16 16"
   version="1.1"
   id="svg1"
   sodipodi:docname="folder-projects.svg"
   inkscape:version="1.4.4 (dcaf3e7d9e, 2026-05-05)"
   xmlns:inkscape="http://www.inkscape.org/namespaces/inkscape"
   xmlns:sodipodi="http://sodipodi.sourceforge.net/DTD/sodipodi-0.dtd"
   xmlns="http://www.w3.org/2000/svg"
   xmlns:svg="http://www.w3.org/2000/svg">
  <sodipodi:namedview
     id="namedview1"
     pagecolor="#ffffff"
     bordercolor="#000000"
     borderopacity="0.25"
     inkscape:showpageshadow="2"
     inkscape:pageopacity="0.0"
     inkscape:pagecheckerboard="0"
     inkscape:deskcolor="#d1d1d1"
     inkscape:zoom="50"
     inkscape:cx="7.99"
     inkscape:cy="8"
     inkscape:window-width="1920"
     inkscape:window-height="1008"
     inkscape:window-x="0"
     inkscape:window-y="0"
     inkscape:window-maximized="1"
     inkscape:current-layer="svg1" />
  <defs
     id="defs3051">
    <style
       type="text/css"
       id="current-color-scheme">
      .ColorScheme-Text {
        color:#232629;
      }
      </style>
  </defs>
  <path
     id="path1"
     style="fill:currentColor;fill-opacity:1;stroke:none"
     class="ColorScheme-Text"
     d="M 7 2 L 7 3.1015625 C 6.3740513 3.230716 5.778669 3.4786814 5.2460938 3.8320312 L 4.4648438 3.0507812 L 3.0507812 4.4648438 L 3.8320312 5.2460938 C 3.4800581 5.7789646 3.2334258 6.3743296 3.1054688 7 L 2 7 L 2 9 L 3.1015625 9 C 3.230716 9.6259486 3.4786816 10.221331 3.8320312 10.753906 L 3.0507812 11.535156 L 4.4648438 12.949219 L 5.2460938 12.167969 C 5.7789646 12.519942 6.3743296 12.766574 7 12.894531 L 7 14 L 9 14 L 9 12.898438 C 9.6259487 12.769284 10.221331 12.521319 10.753906 12.167969 L 11.535156 12.949219 L 12.949219 11.535156 L 12.167969 10.753906 C 12.519942 10.221035 12.766574 9.6256703 12.894531 9 L 14 9 L 14 7 L 12.898438 7 C 12.769284 6.3740513 12.521319 5.778669 12.167969 5.2460938 L 12.949219 4.4648438 L 11.535156 3.0507812 L 10.753906 3.8320312 C 10.221035 3.4800582 9.6256703 3.2334257 9 3.1054688 L 9 2 L 7 2 z M 8 4 C 9.0809804 4.0000024 10.115938 4.4375169 10.869141 5.2128906 C 11.594334 5.9594258 11.999998 6.9592213 12 8 C 11.999997 9.0809805 11.562483 10.115938 10.787109 10.869141 C 10.040574 11.594334 9.0407785 11.999998 8 12 C 6.9190197 11.999997 5.8840619 11.562483 5.1308594 10.787109 C 4.405666 10.040574 4.0000026 9.0407786 4 8 C 4.0000025 6.9190197 4.437517 5.884062 5.2128906 5.1308594 C 5.9594257 4.4056659 6.9592213 4.0000025 8 4 z " />
</svg>
